<!-- Generator: Adobe Illustrator 21.1.0, SVG Export Plug-In  -->
<svg version="1.1"
	 xmlns="http://www.w3.org/2000/svg" xmlns:xlink="http://www.w3.org/1999/xlink" xmlns:a="http://ns.adobe.com/AdobeSVGViewerExtensions/3.0/"
	 x="0px" y="0px" width="28px" height="29px" viewBox="0 0 28 29" style="overflow:scroll;enable-background:new 0 0 28 29;"
	 xml:space="preserve">
<style type="text/css">
	.st0{fill:#FFFFFF;}
</style>
<defs>
</defs>
<g id="_x38_lTv1Q.tif_1_">
	<g>
		<path class="st0" d="M28,6.3c-0.1,0.3-0.1,0.7-0.2,1c-0.3,1.1-1,2-1.8,2.7c-1.3,1-2.7,1.6-4.3,1.8c-0.7,0.1-1.5,0.1-2.2,0
			c-0.1,0-0.2,0-0.2,0.1c-1,0.9-2.1,1.4-3.4,1.6c-0.4,0.1-0.7,0.1-1.1,0.2c-0.1,0-0.1,0-0.2,0c0.2-0.3,0.5-0.6,0.7-0.9
			c0.4-0.6,0.7-1.2,0.8-1.9c0-0.1,0-0.2-0.1-0.2c-0.6-0.4-1.2-0.9-1.7-1.5c-0.9-1.1-1.3-2.3-1.2-3.7c0.1-0.7,0.3-1.3,0.6-1.9
			c0.6-1,1.4-1.8,2.4-2.3c1.2-0.7,2.5-1.1,3.9-1.2c1.5-0.1,3,0.1,4.3,0.7c1.2,0.5,2.2,1.3,2.9,2.3c0.5,0.7,0.8,1.4,0.9,2.3
			c0,0.1,0,0.1,0,0.2C28,5.8,28,6.1,28,6.3z M25.2,5.9c0-0.6-0.5-1.2-1.2-1.2c-0.6,0-1.2,0.5-1.2,1.2c0,0.6,0.5,1.2,1.2,1.2
			C24.7,7.1,25.2,6.6,25.2,5.9z M20.5,7.1c0.6,0,1.2-0.5,1.2-1.2c0-0.6-0.5-1.2-1.2-1.2c-0.6,0-1.2,0.5-1.2,1.2
			C19.3,6.6,19.9,7.1,20.5,7.1z M16.9,7.1c0.6,0,1.2-0.5,1.2-1.2c0-0.6-0.5-1.2-1.1-1.2c-0.6,0-1.2,0.5-1.2,1.2
			C15.8,6.6,16.3,7.1,16.9,7.1z"/>
		<path class="st0" d="M0,12.1c0.1-0.2,0.1-0.5,0.2-0.7c0.1-0.2,0.1-0.3,0.2-0.4C1,10.4,1.6,9.7,2.3,9.2c0.7-0.5,1.5-0.5,2.3,0
			c0.7,0.5,1.2,1.1,1.6,1.8c0.3,0.4,0.5,0.8,0.6,1.2C7.1,13,7,13.7,6.4,14.3c-0.2,0.3-0.5,0.6-0.8,0.8c-0.3,0.3-0.4,0.7-0.3,1.1
			c0.2,0.6,0.5,1.2,0.9,1.7c1,1.3,2.2,2.5,3.4,3.6c0.8,0.7,1.6,1.4,2.5,1.8c0.1,0.1,0.3,0.1,0.5,0.2c0.5,0.2,1,0.1,1.3-0.4
			c0.3-0.4,0.7-0.7,1.1-0.9c0.6-0.4,1.2-0.4,1.8-0.2c0.8,0.3,1.5,0.8,2.2,1.4c0.3,0.2,0.5,0.5,0.8,0.8c0.6,0.9,0.6,1.6,0,2.5
			c-0.5,0.7-1.1,1.2-1.7,1.8C17.4,29,16.7,29,16,29c-1.9-0.2-3.5-0.9-5.1-1.9c-2-1.2-3.8-2.7-5.5-4.4c-1.3-1.4-2.5-2.9-3.5-4.5
			C1,16.6,0.3,15,0,13.2c0,0,0-0.1,0-0.1C0,12.8,0,12.4,0,12.1z"/>
	</g>
</g>
</svg>
