<!-- Generator: Adobe Illustrator 21.1.0, SVG Export Plug-In  -->
<svg version="1.1"
	 xmlns="http://www.w3.org/2000/svg" xmlns:xlink="http://www.w3.org/1999/xlink" xmlns:a="http://ns.adobe.com/AdobeSVGViewerExtensions/3.0/"
	 x="0px" y="0px" width="23.8px" height="21px" viewBox="0 0 23.8 21" style="overflow:scroll;enable-background:new 0 0 23.8 21;"
	 xml:space="preserve">
<style type="text/css">
	.st0{fill:#525252;}
</style>
<defs>
</defs>
<g>
	<path class="st0" d="M19.6,2.2C19.2,0.9,18.1,0,16.7,0c-1.4,0-2.6,0.9-2.9,2.2H0v1.7h13.8c0.4,1.3,1.5,2.2,2.9,2.2
		c1.4,0,2.6-0.9,2.9-2.2h4.2V2.2H19.6z"/>
	<path class="st0" d="M5.7,7.4c-1.4,0-2.6,0.9-2.9,2.2H0v1.7h2.8c0.4,1.3,1.5,2.2,2.9,2.2c1.4,0,2.6-0.9,2.9-2.2h15.2V9.7H8.6
		C8.3,8.4,7.1,7.4,5.7,7.4z"/>
	<path class="st0" d="M16.7,14.9c-1.4,0-2.6,0.9-2.9,2.2H0v1.7h13.8c0.4,1.3,1.5,2.2,2.9,2.2c1.4,0,2.6-0.9,2.9-2.2h4.2v-1.7h-4.2
		C19.2,15.8,18.1,14.9,16.7,14.9z"/>
</g>
</svg>
