<!-- Generator: Adobe Illustrator 21.1.0, SVG Export Plug-In  -->
<svg version="1.1"
	 xmlns="http://www.w3.org/2000/svg" xmlns:xlink="http://www.w3.org/1999/xlink" xmlns:a="http://ns.adobe.com/AdobeSVGViewerExtensions/3.0/"
	 x="0px" y="0px" width="162px" height="54px" viewBox="0 0 162 54" style="enable-background:new 0 0 162 54;"
	 xml:space="preserve">
<style type="text/css">
	.st0{fill:#F3914E;}
</style>
<defs>
</defs>
<g>
	<rect x="34.4" y="33.7" class="st0" width="3.8" height="20.3"/>
	<rect x="118.9" y="23.2" class="st0" width="3.8" height="30.8"/>
	<rect x="68.4" y="16.5" class="st0" width="3.8" height="37.5"/>
	<g>
		<path class="st0" d="M130.2,27.9L96.3,0L27,36.3l2,3.9l5.5-2.9V54h88V27.2l4.8,4L130.2,27.9z M68.9,50.5H37.1V36l31.8-16.7V50.5z
			 M120.1,50.5H71.4V18L95.7,5.2l24.4,20V50.5z"/>
		<polygon class="st0" points="63.4,31.8 45.4,41.3 45.4,45.2 63.4,45.2 		"/>
		<rect x="85" y="30.3" class="st0" width="8.1" height="15"/>
		<rect x="95.1" y="30.3" class="st0" width="8.1" height="15"/>
		<path class="st0" d="M162,47.4v-1.3h-2.3v-2.3l-2.4-4l-2.4,4v2.3h-2.5v-2.3l-2.4-4l-2.4,4v2.3h-2.5v-2.3l-2.4-4l-2.4,4v2.3h-2.5
			v-2.3l-2.4-4l-2.4,4v2.3h-1.9v1.3h1.9v3.1h-1.9v1.3h1.9v2h4.9v-2h2.5v2h4.9v-2h2.5v2h4.9v-2h2.5v2h4.9v-2h2.3v-1.3h-2.3v-3.1H162z
			 M140,50.5h-2.5v-3.1h2.5V50.5z M147.4,50.5h-2.5v-3.1h2.5V50.5z M154.9,50.5h-2.5v-3.1h2.5V50.5z"/>
		<path class="st0" d="M21.7,43.8l-2.4-4l-2.4,4v2.3h-2.5v-2.3l-2.4-4l-2.4,4v2.3H6.8v-2.3l-2.4-4l-2.4,4v2.3H0v1.3h2v3.1H0v1.3h2v2
			h4.9v-2h2.5v2h4.9v-2h2.5v2h4.9v-2H24v-1.3h-2.3v-3.1H24v-1.3h-2.3V43.8z M9.4,50.5H6.8v-3.1h2.5V50.5z M16.8,50.5h-2.5v-3.1h2.5
			V50.5z"/>
	</g>
</g>
</svg>
