<!-- Generator: Adobe Illustrator 21.1.0, SVG Export Plug-In  -->
<svg version="1.1"
	 xmlns="http://www.w3.org/2000/svg" xmlns:xlink="http://www.w3.org/1999/xlink" xmlns:a="http://ns.adobe.com/AdobeSVGViewerExtensions/3.0/"
	 x="0px" y="0px" width="75.6px" height="53.5px" viewBox="0 0 75.6 53.5"
	 style="overflow:scroll;enable-background:new 0 0 75.6 53.5;" xml:space="preserve">
<style type="text/css">
	.st0{fill:#F2904E;}
</style>
<defs>
</defs>
<g>
	<g>
		<g>
			<path class="st0" d="M70.4,20.7c-1.6,0-2.6,1.3-2.6,2.6V26h-5.2v7.8h-6.3l-6.8-13l13.8-3.4c1.6-0.3,2.3-1.8,1.8-3.1L61.2,1.7
				c-0.3-1.3-1.8-2.1-3.1-1.6L23.5,9l4.4,4.2l-1.6,0.5c-0.8,0.3-1,0.8-1,1.6l2.3,7.6c0.3,0.5,1,1,1.8,0.8l7.3-2.3l2.1,2.1l5.5-1.3
				L53.2,39h9.4v7.8h5.2v2.6c0,1.6,1,2.6,2.6,2.6h5.2V20.7L70.4,20.7L70.4,20.7z"/>
		</g>
	</g>
	<g>
		<path class="st0" d="M4.9,38.6c2.8,0,4.7,1.6,4.7,3.8c0,1.7-1.1,2.9-2.6,4.4l-3.2,3.1v0.1h6v2.2H0.2v-1.9l5-4.8
			c1.3-1.3,1.8-2,1.8-2.9c0-1-0.9-1.8-2.1-1.8c-1.3,0-2.2,0.9-2.2,2.1v0H0v0C0,40.3,2,38.6,4.9,38.6z"/>
		<path class="st0" d="M18.1,49.8h-6.6v-2.4c1.2-2.2,2.6-4.5,5.3-8.6h3.9v8.7h1.7v2.2h-1.7v2.4h-2.6V49.8z M13.9,47.6h4.2v-6.8h-0.1
			C16.2,43.7,15,45.5,13.9,47.6L13.9,47.6z"/>
		<path class="st0" d="M23.5,53.5l3.8-16h2.5l-3.9,16H23.5z"/>
		<path class="st0" d="M37.7,41.1L37.7,41.1l-6.8-0.1v-2.2h9.5v2.2l-5.5,11.1H32L37.7,41.1z"/>
	</g>
</g>
</svg>
