<!-- Generator: Adobe Illustrator 21.1.0, SVG Export Plug-In  -->
<svg version="1.1"
	 xmlns="http://www.w3.org/2000/svg" xmlns:xlink="http://www.w3.org/1999/xlink" xmlns:a="http://ns.adobe.com/AdobeSVGViewerExtensions/3.0/"
	 x="0px" y="0px" width="87px" height="67.9px" viewBox="0 0 87 67.9" style="overflow:scroll;enable-background:new 0 0 87 67.9;"
	 xml:space="preserve">
<style type="text/css">
	.st0{fill:#F3914E;}
</style>
<defs>
</defs>
<g id="I6hpnb.tif_2_">
	<g>
		<path class="st0" d="M78.9,46c-1.4,2.1-3.6,3.2-6.1,3.9c-3.7,1.1-7.3,2.1-11,3.1c-1.6,0.5-3.2,1.1-4.5,2.1c-2.2,1.7-2.2,3.4,0,5.1
			c2.4,1.8,5.3,2.9,8.2,3.9c3.7,1.3,7.4,2.5,11.1,3.8c-4.1,0-8.2-0.6-12.3-1.1c-6.5-0.9-13-1.9-19.2-3.9c-2.4-0.8-4.8-1.7-6.8-3.2
			c-3.1-2.4-2.9-5.2,0.7-7c1.7-0.9,3.7-1.4,5.5-2.1c0.9-0.3,1.8-0.7,2.6-1.1c0.8-0.4,1.7-0.9,1.6-2c-0.1-0.9-1.1-1.2-1.9-1.5
			c-4.5-1.4-9.2-1.8-13.9-2.4c-7.6-1-15.3-1.8-22.7-3.9c-2.3-0.6-4.5-1.4-6.5-2.6c-1.2-0.7-2.2-1.5-2.9-2.6c-1.3-2-0.9-3.5,1.4-4.6
			c3.2-1.6,6.8-2.3,10.3-2.9c8.3-1.5,16.7-2.4,25.1-3c0.6,0,1.2-0.2,1.9,0.2c-1.9,0.6-3.7,1.2-5.4,1.8c-1.7,0.6-3.3,1.3-4.6,2.4
			c-1.9,1.6-1.7,2.9,0.7,4c3.5,1.5,7.3,2,11.1,2.7c9,1.5,18.2,2.4,27.1,4.4c3.9,0.9,7.8,1.8,10.5,4.7C78.9,44.7,78.9,45.3,78.9,46z"
			/>
		<g>
			<path class="st0" d="M64,13.6c6.8,5.1,10.2,12,10.6,20.6c0.7-1.5,0.7-2.9,0.3-6c-0.6-3.9-1.5-7.8-2.9-11.6
				c-1-2.6-1.9-5.2-4.4-7.3c-2-1.6-3.1-4.3-4.6-6.5C62.4,2,62.4,1,63.3,0.4c0.9-0.6,2-0.6,2.6,0.4c1.5,2.2,3,4.4,4.5,6.6
				c0.1,0.2,0.3,0.5,0.3,0.7c-1.2,3.7,1.9,6.2,2.7,9.4c0.6,2.7,1.5,5.4,2.5,8.6c0.6-5.4,2.2-10.1,3.3-14.8c0.6-2.8,1.4-5.4,2.5-7.9
				c0.4-1,1.1-1.9,2.2-1.4c1.2,0.6,0.9,1.7,0.4,2.6c-1.2,2.1-2.1,4.4-3.7,6.4c-1.6,2-1.9,4.9-2.5,7.5c-1.1,5.1-1.3,10.2-1,15.4
				c0.1,1.6,0.1,2.2-2,2c-2.7-0.3-3.4-1-3.5-3.8c-0.3-6-2.5-11.5-6-16.4C64.9,14.9,64.5,14.2,64,13.6z"/>
			<path class="st0" d="M87,18c-6.1,3.3-7.8,8.7-7.4,15.1c0.1,0.7,0,1.5,0,2.2c0,0.5-0.1,1-0.8,1c-0.6,0-1.3-0.1-1.3-0.9
				c0.1-4.4-0.7-9,2.2-13C81.5,20,83.9,18.5,87,18z"/>
		</g>
	</g>
</g>
</svg>
