<!-- Generator: Adobe Illustrator 21.1.0, SVG Export Plug-In  -->
<svg version="1.1"
	 xmlns="http://www.w3.org/2000/svg" xmlns:xlink="http://www.w3.org/1999/xlink" xmlns:a="http://ns.adobe.com/AdobeSVGViewerExtensions/3.0/"
	 x="0px" y="0px" width="88.6px" height="52px" viewBox="0 0 88.6 52" style="overflow:scroll;enable-background:new 0 0 88.6 52;"
	 xml:space="preserve">
<style type="text/css">
	.st0{fill:#F2904E;}
</style>
<defs>
</defs>
<g>
	<polygon class="st0" points="14,35.4 18,35.4 18,32.2 12.7,32.2 6.8,38 0,38 0,41.2 8,41.2 	"/>
	<polygon class="st0" points="11.2,46.3 5.7,46.3 5.7,49.4 12.5,49.4 21.9,40 19.7,37.8 	"/>
	<polygon class="st0" points="80.6,10.9 74.6,16.7 70.6,16.7 70.6,19.9 75.9,19.9 81.9,14.1 88.6,14.1 88.6,10.9 	"/>
	<polygon class="st0" points="77.4,5.8 83,5.8 83,2.7 76.1,2.7 66.7,12.1 69,14.3 	"/>
	<path class="st0" d="M68.9,21.9h-4.3c-0.5-2.7-1.6-5.3-3.1-7.5l3.1-3.1c0.5-0.5,0.5-1.3,0-1.8l-3.9-3.9c-0.5-0.5-1.3-0.5-1.8,0
		l-3.1,3.1c-2.2-1.5-4.8-2.6-7.5-3.1V1.3C48.3,0.6,47.7,0,47,0h-5.5c-0.7,0-1.3,0.6-1.3,1.3v4.3c-2.7,0.5-5.3,1.6-7.5,3.1l-3.1-3.1
		c-0.5-0.5-1.3-0.5-1.8,0l-3.9,3.9c-0.5,0.5-0.5,1.3,0,1.8l3.1,3.1c-1.5,2.2-2.6,4.8-3.1,7.5h-4.3c-0.7,0-1.3,0.6-1.3,1.3v5.5
		c0,0.7,0.6,1.3,1.3,1.3h4.3c0.5,2.7,1.6,5.3,3.1,7.5l-3.1,3.1c-0.5,0.5-0.5,1.3,0,1.8l3.9,3.9c0.5,0.5,1.3,0.5,1.8,0l3.1-3.1
		c2.2,1.5,4.8,2.6,7.5,3.1v4.3c0,0.7,0.6,1.3,1.3,1.3H47c0.7,0,1.3-0.6,1.3-1.3v-4.3c2.7-0.5,5.3-1.6,7.5-3.1l3.1,3.1
		c0.5,0.5,1.3,0.5,1.8,0l3.9-3.9c0.5-0.5,0.5-1.3,0-1.8l-3.1-3.1c1.5-2.2,2.6-4.8,3.1-7.5h4.3c0.7,0,1.3-0.6,1.3-1.3v-5.5
		C70.2,22.5,69.7,21.9,68.9,21.9z M44.3,38.5c-6.9,0-12.5-5.6-12.5-12.5s5.6-12.5,12.5-12.5S56.8,19.1,56.8,26S51.2,38.5,44.3,38.5z
		"/>
	<circle class="st0" cx="44.3" cy="26" r="6.1"/>
</g>
</svg>
