<!-- Generator: Adobe Illustrator 21.1.0, SVG Export Plug-In  -->
<svg version="1.1"
	 xmlns="http://www.w3.org/2000/svg" xmlns:xlink="http://www.w3.org/1999/xlink" xmlns:a="http://ns.adobe.com/AdobeSVGViewerExtensions/3.0/"
	 x="0px" y="0px" width="65.1px" height="62.3px" viewBox="0 0 65.1 62.3"
	 style="overflow:scroll;enable-background:new 0 0 65.1 62.3;" xml:space="preserve">
<style type="text/css">
	.st0{fill:#F3914E;}
</style>
<defs>
</defs>
<g id="SFAuaV.tif_2_">
	<g>
		<path class="st0" d="M53.2,25.8c6,0,11.1,4.5,11.8,10.4c0.2,1.9-0.1,3.6-0.8,5.3c-0.9,2.2-2.2,4.3-3.5,6.3c-2.1,3.2-4.5,6.2-7,9.1
			c-0.2,0.3-0.4,0.6-0.7,0.1c-3.8-4.5-7.4-9-10-14.3c-0.6-1.3-1.2-2.6-1.4-4.1c-0.4-3.3,0.6-6.2,2.8-8.8
			C46.5,27.3,49.8,25.9,53.2,25.8z M53.3,33.4c-2.2,0-4.2,1.9-4.2,4.2c0,2.2,1.9,4.2,4.2,4.2c2.3,0,4.2-2,4.2-4.2
			C57.4,35.3,55.5,33.4,53.3,33.4z"/>
		<path class="st0" d="M12.3,0c5.9,0,11.1,5.1,11.3,11.5c0,1.7-0.5,3.3-1.2,4.8c-1.6,3.5-3.8,6.7-6.1,9.7c-1.3,1.7-2.7,3.4-4.1,5.1
			c-0.3,0.3-0.5,0.5-0.8,0c-3.7-4.4-7.2-8.8-9.8-13.9c-0.7-1.3-1.3-2.7-1.5-4.2C-0.4,8.3,1.5,4.6,5.3,1.9C7.2,0.6,9.4,0,12.3,0z
			 M11.8,7.6c-2.2,0-4.2,1.9-4.2,4.2c0,2.2,2,4.2,4.2,4.2c2.2,0,4.1-1.9,4.1-4.1C16,9.6,14.1,7.6,11.8,7.6z"/>
		<path class="st0" d="M35.7,61.9c-1.2-0.1-2.3-0.1-3.5-0.2c-1-0.1-1.5-0.8-1.5-1.6c0.1-0.9,0.8-1.5,1.8-1.4
			c1.3,0.1,2.5,0.2,3.8,0.3c0.8,0.1,1.5,0.7,1.5,1.5c0,0.8-0.7,1.5-1.5,1.5C36.1,61.9,35.9,61.9,35.7,61.9z"/>
		<path class="st0" d="M22.5,57.6c1.4,0.2,2.8,0.3,4.1,0.6c0.9,0.1,1.3,0.9,1.2,1.8c-0.1,0.7-0.8,1.3-1.6,1.2
			c-1.4-0.2-2.7-0.3-4.1-0.5c-0.9-0.1-1.3-0.9-1.2-1.7C21,58.1,21.7,57.6,22.5,57.6z"/>
		<path class="st0" d="M14.3,48.7c-0.9,0-1.5-0.5-1.7-1.2c-0.2-0.7,0.2-1.5,0.9-1.7c1.4-0.5,2.8-0.9,4.3-1.1
			c0.8-0.1,1.4,0.4,1.6,1.1c0.2,0.7-0.1,1.5-0.8,1.7C17.1,48,15.6,48.4,14.3,48.7z"/>
		<path class="st0" d="M23.8,46.4c-0.8,0-1.4-0.5-1.5-1.2c-0.1-0.8,0.2-1.5,1-1.7c1.3-0.4,2.7-0.8,4-1.1c0.8-0.2,1.5,0.2,1.7,0.9
			c0.3,0.7,0,1.5-0.7,1.9C27.9,45.4,24.3,46.4,23.8,46.4z"/>
		<path class="st0" d="M33,40c0,0.7-0.5,1.4-1.2,1.5c-0.7,0.2-1.6-0.2-1.7-1c-0.2-1.1-0.9-1.6-1.7-2.2c-0.8-0.5-1-1.3-0.6-2.1
			c0.4-0.7,1.3-1,2.1-0.6C31.6,36.6,33,38.5,33,40z"/>
		<path class="st0" d="M12.8,55.4c0.1,0,0.3,0,0.5,0.1c1.1,0.4,2.2,0.7,3.4,1c1,0.3,1.5,1,1.3,2c-0.2,0.8-1,1.2-2,1
			c-1.3-0.3-2.5-0.6-3.7-1.1c-0.8-0.3-1.2-1-1-1.8C11.4,55.9,12,55.4,12.8,55.4z"/>
		<path class="st0" d="M20.1,33.6c1,0.1,2.1,0.2,3.3,0.3c1,0.1,1.6,0.8,1.4,1.8C24.7,36.7,24,37.1,23,37c-1.1-0.1-2.3-0.2-3.4-0.3
			c-1.1-0.1-1.7-0.6-1.7-1.6c0-0.9,0.7-1.5,1.8-1.5C19.8,33.7,19.8,33.6,20.1,33.6z"/>
		<path class="st0" d="M44.2,62.2c-0.6,0-1.3,0-1.9,0c-1,0-1.6-0.7-1.5-1.6c0-0.9,0.6-1.5,1.5-1.5c1.3,0,2.7,0,4,0.1
			c0.9,0,1.5,0.7,1.5,1.6c0,0.9-0.6,1.5-1.5,1.5C45.6,62.3,44.9,62.2,44.2,62.2C44.2,62.2,44.2,62.2,44.2,62.2z"/>
		<path class="st0" d="M8.7,48.4c0.7,0,1.2,0.3,1.4,0.8c0.3,0.5,0.3,1.1-0.1,1.6c-0.7,0.7-0.8,1.5-0.6,2.5c0.2,0.8-0.3,1.5-1,1.7
			c-0.7,0.2-1.5-0.1-1.8-0.9c-0.8-1.7-0.2-4.2,1.3-5.3C8.1,48.5,8.5,48.4,8.7,48.4z"/>
		<path class="st0" d="M53.3,62.3c-0.3,0-0.7,0-1,0c-0.8-0.1-1.4-0.7-1.5-1.5c0-0.8,0.6-1.4,1.4-1.5c0.8-0.1,1.6-0.1,2.4,0
			c0.8,0.1,1.4,0.7,1.4,1.5c0,0.8-0.6,1.4-1.4,1.5C54.2,62.3,53.7,62.3,53.3,62.3C53.3,62.3,53.3,62.3,53.3,62.3z"/>
		<path class="st0" d="M12.3,36.5c-0.4,0-0.8,0-1.2,0c-0.8-0.1-1.4-0.7-1.4-1.5c0-0.7,0.6-1.4,1.3-1.5c0.8,0,1.7-0.1,2.5,0
			c0.8,0,1.3,0.8,1.3,1.6c0,0.8-0.6,1.4-1.4,1.4C13.2,36.5,12.7,36.5,12.3,36.5z"/>
	</g>
</g>
</svg>
