<!-- Generator: Adobe Illustrator 21.1.0, SVG Export Plug-In  -->
<svg version="1.1"
	 xmlns="http://www.w3.org/2000/svg" xmlns:xlink="http://www.w3.org/1999/xlink" xmlns:a="http://ns.adobe.com/AdobeSVGViewerExtensions/3.0/"
	 x="0px" y="0px" width="60px" height="52px" viewBox="0 0 60 52" style="overflow:scroll;enable-background:new 0 0 60 52;"
	 xml:space="preserve">
<style type="text/css">
	.st0{fill:#F2904E;}
</style>
<defs>
</defs>
<g>
	<g>
		<path class="st0" d="M21.8,28.6c3.5,0,11.7-4.2,11.7-14.3c0-1.4,0-2.8-0.2-4.1c-0.2-2.5-0.7-4.8-2-6.5C29.7,1.4,26.8,0,21.8,0
			c-5,0-7.9,1.4-9.6,3.8c-1.3,1.7-1.8,4-2,6.5c-0.1,1.3-0.2,2.6-0.2,4.1C10.1,24.4,18.3,28.6,21.8,28.6z M11.8,12.1
			c0.1,0.3,0.7,1.4,1.6,1.5c1,0.1,2.7-3.6,8.4-3.6c5.7,0,7.4,3.8,8.4,3.6c0.9-0.1,1.5-1.2,1.6-1.5c0,0.7,0,1.5,0,2.2
			c0,4.9-2.2,8-4,9.7c-2.3,2.1-4.9,2.9-6,2.9c-1.2,0-3.7-0.8-6-2.9c-1.8-1.7-4-4.8-4-9.7C11.8,13.6,11.8,12.8,11.8,12.1z"/>
		<path class="st0" d="M43.6,45.2c-0.2-1.4-1.5-8.3-4.3-10.2c-1.7-1.1-7.6-4.3-10.1-5.7c-0.3-0.2-0.6-0.1-0.9,0.1
			c-1.3,1-2.8,1.7-4.3,2.1c-0.3,0.1-0.5,0.3-0.6,0.5l-0.8,2.2h-0.7h-0.7L20.2,32c-0.1-0.3-0.3-0.5-0.6-0.5c-1.5-0.3-3-1-4.3-2.1
			c-0.3-0.2-0.6-0.2-0.9-0.1C12,30.6,6,33.9,4.3,35C1.5,36.9,0.2,43.8,0,45.2c0,0.1,0,0.3,0,0.4c0.1,0.2,1.1,4.1,8,5.4
			c2.9,0.6,8.9,1.1,13.8,1c4.9,0.1,10.9-0.4,13.8-1c6.8-1.3,7.9-5.2,8-5.4C43.6,45.5,43.6,45.4,43.6,45.2z"/>
	</g>
	<path class="st0" d="M53.6,16.5c-0.2-0.2-0.4-0.2-0.6-0.2s-0.4,0.1-0.6,0.2l-0.7,0.7l-1.1-1.1l3.3-3.3c0.5,0.2,1.1,0.4,1.7,0.4
		c1.2,0,2.3-0.5,3.1-1.3c1.1-1.1,1.5-2.8,1.1-4.3c0-0.1-0.1-0.2-0.2-0.2c-0.1,0-0.2,0-0.3,0.1l-2.7,2.8c-0.2-0.1-0.6-0.3-1.3-1.1
		c-0.8-0.8-1-1.2-1.1-1.3L57,5.1c0.1-0.1,0.1-0.2,0.1-0.3c0-0.1-0.1-0.2-0.2-0.2c-0.4-0.1-0.8-0.2-1.2-0.2c-1.2,0-2.3,0.5-3.1,1.3
		C51.3,7,51,8.9,51.7,10.5l-3.3,3.3l-3.4-3.4c0,0,0,0,0,0l-1.6-2.7c0,0-0.1-0.1-0.1-0.1l-2.6-1.8c-0.1-0.1-0.3-0.1-0.5,0L39,7
		c-0.1,0.1-0.1,0.3,0,0.5l1.8,2.6c0,0,0.1,0.1,0.1,0.1l2.7,1.6c0,0,0,0,0,0l3.4,3.4l-2.6,2.6c-0.5-0.2-1.1-0.4-1.7-0.4
		c-1.2,0-2.3,0.5-3.1,1.3c-1.1,1.1-1.5,2.8-1.1,4.3c0,0.1,0.1,0.2,0.2,0.2c0.1,0,0.2,0,0.3-0.1l2.7-2.8c0.2,0.1,0.6,0.3,1.3,1.1
		c0.8,0.8,1,1.2,1.1,1.3l-2.7,2.8c-0.1,0.1-0.1,0.2-0.1,0.3c0,0.1,0.1,0.2,0.2,0.2c0.4,0.1,0.8,0.2,1.2,0.2c1.2,0,2.3-0.5,3.1-1.3
		c1.3-1.3,1.6-3.2,0.9-4.8l2.6-2.6l1.1,1.1l-0.7,0.7c-0.2,0.2-0.2,0.4-0.2,0.6s0.1,0.4,0.2,0.6l5.2,5.2c0.2,0.2,0.4,0.2,0.6,0.2
		s0.4-0.1,0.6-0.2l2.8-2.8c0.2-0.2,0.2-0.4,0.2-0.6s-0.1-0.4-0.2-0.6L53.6,16.5z M55.5,23.9c-0.2,0.2-0.5,0.2-0.7,0l-3.4-3.4
		c-0.2-0.2-0.2-0.5,0-0.7c0.2-0.2,0.5-0.2,0.7,0l3.4,3.4C55.7,23.4,55.7,23.7,55.5,23.9z M57,22.4c-0.2,0.2-0.5,0.2-0.7,0L53,19
		c-0.2-0.2-0.2-0.5,0-0.7c0.2-0.2,0.5-0.2,0.7,0l3.4,3.4C57.2,21.9,57.2,22.2,57,22.4z"/>
</g>
</svg>
