<!-- Generator: Adobe Illustrator 21.1.0, SVG Export Plug-In  -->
<svg version="1.1"
	 xmlns="http://www.w3.org/2000/svg" xmlns:xlink="http://www.w3.org/1999/xlink" xmlns:a="http://ns.adobe.com/AdobeSVGViewerExtensions/3.0/"
	 x="0px" y="0px" width="130.1px" height="57.9px" viewBox="0 0 130.1 57.9"
	 style="overflow:scroll;enable-background:new 0 0 130.1 57.9;" xml:space="preserve">
<style type="text/css">
	.st0{fill:#F3914E;}
</style>
<defs>
</defs>
<g>
	<polygon class="st0" points="65,40 57.2,27.6 61.9,27.3 53.5,13.8 56.9,13.5 49.3,0 41.7,13.5 45.1,13.8 36.7,27.3 41.3,27.6 
		33.5,40 46,40.9 46,48.7 52.6,48 52.6,40.9 	"/>
	<polygon class="st0" points="120,47.5 116.3,41.7 118.5,41.5 114.5,35.2 116.1,35 112.5,28.7 108.9,35 110.6,35.2 106.6,41.5 
		108.8,41.7 105.1,47.5 111,47.9 111,50.4 114.1,51.4 114.1,47.9 	"/>
	<polygon class="st0" points="24.7,46.2 19.1,37.3 22.5,37 16.4,27.4 18.9,27.2 13.4,17.5 8,27.2 10.4,27.4 4.4,37 7.7,37.3 
		2.1,46.2 11.1,46.8 11.1,53 15.8,52.1 15.8,46.8 	"/>
	<polygon class="st0" points="96.1,42.5 90.4,33.6 93.8,33.3 87.8,23.6 90.2,23.4 84.8,13.8 79.3,23.4 81.7,23.6 75.7,33.3 
		79.1,33.6 73.4,42.5 82.4,43.1 81.8,48.5 87.1,49.3 87.1,43.1 	"/>
	<g>
		<path class="st0" d="M129.5,57.9c-0.3-0.1-29.3-8.6-64.5-8.6c-35.2,0-64.2,8.5-64.5,8.6L0,56c0.3-0.1,29.5-8.7,65-8.7
			s64.7,8.6,65,8.7L129.5,57.9z"/>
	</g>
</g>
</svg>
