<!-- Generator: Adobe Illustrator 21.1.0, SVG Export Plug-In  -->
<svg version="1.1"
	 xmlns="http://www.w3.org/2000/svg" xmlns:xlink="http://www.w3.org/1999/xlink" xmlns:a="http://ns.adobe.com/AdobeSVGViewerExtensions/3.0/"
	 x="0px" y="0px" width="92.5px" height="52px" viewBox="0 0 92.5 52" style="overflow:scroll;enable-background:new 0 0 92.5 52;"
	 xml:space="preserve">
<style type="text/css">
	.st0{fill:#F2904E;}
</style>
<defs>
</defs>
<g>
	<g>
		<path class="st0" d="M63.4,43.4c0,4.7,3.8,8.6,8.6,8.6c4.7,0,8.6-3.8,8.6-8.6s-3.8-8.6-8.6-8.6C67.3,34.8,63.4,38.7,63.4,43.4z
			 M68.3,43.4c0-2.1,1.7-3.7,3.7-3.7c2.1,0,3.7,1.7,3.7,3.7c0,2.1-1.7,3.7-3.7,3.7C69.9,47.1,68.3,45.5,68.3,43.4z"/>
		<path class="st0" d="M12.9,43.4c0,4.7,3.8,8.6,8.6,8.6c4.7,0,8.6-3.8,8.6-8.6s-3.8-8.6-8.6-8.6C16.8,34.8,12.9,38.7,12.9,43.4z
			 M17.8,43.4c0-2.1,1.7-3.7,3.7-3.7c2.1,0,3.7,1.7,3.7,3.7c0,2.1-1.7,3.7-3.7,3.7C19.5,47.1,17.8,45.5,17.8,43.4z"/>
		<path class="st0" d="M0,5.1l0,33.1c0,2.8,2.3,5.1,5.1,5.1h6.3c0-5.6,4.5-10.1,10.1-10.1c5.6,0,10.1,4.5,10.1,10.1h30.2
			c0-5.6,4.5-10.1,10.1-10.1c5.6,0,10.1,4.5,10.1,10.1h5.2c2.8,0,5.1-2.3,5.1-5.1V26.5c0-2.8-0.5-7.4-1-10.2L88.4,5
			c-0.6-2.8-3.3-5-6.2-5L5.1,0C2.3,0,0,2.3,0,5.1z M71.2,21.7l0-18.6h10.2c2.1,0,4.2,1.7,4.6,3.8l2.8,11c0.3,1.8-0.6,3.2-2.2,3.7
			L84.1,16c-0.3-0.8-1.2-1.2-2-0.8c-0.8,0.3-1.2,1.2-0.8,2l1.9,4.5H71.2L71.2,21.7z M48.3,3.1h19.8v18.6H48.3V3.1z M25.5,3.1h19.8
			v18.6H25.5V3.1z M3.1,6.9c0-2.1,1.7-3.9,3.9-3.9h15.4v18.6H7c-2.1,0-3.9-1.7-3.9-3.9V6.9z"/>
	</g>
</g>
</svg>
