<!-- Generator: Adobe Illustrator 21.1.0, SVG Export Plug-In  -->
<svg version="1.1"
	 xmlns="http://www.w3.org/2000/svg" xmlns:xlink="http://www.w3.org/1999/xlink" xmlns:a="http://ns.adobe.com/AdobeSVGViewerExtensions/3.0/"
	 x="0px" y="0px" width="34.9px" height="48px" viewBox="0 0 34.9 48" style="overflow:scroll;enable-background:new 0 0 34.9 48;"
	 xml:space="preserve">
<style type="text/css">
	.st0{fill:#B3B3B3;}
</style>
<defs>
</defs>
<g id="_x39_Gw0sM.tif_1_">
	<g>
		<path class="st0" d="M24.9,20.7c-0.1,0.2-0.1,0.3-0.1,0.5c0,2.2,0,4.5,0,6.7c0,0.3,0.1,0.5,0.4,0.7c2.9,1.6,5.9,3.3,8.8,4.9
			c0.7,0.4,1,1,0.9,1.7c-0.2,0.9-1.2,1.4-2.1,1c-0.5-0.2-0.9-0.5-1.4-0.8c-0.5-0.3-0.5-0.3-0.5,0.3c0,3.9,0,7.8,0,11.7
			c0,0.8,0.1,0.7-0.7,0.7c-2.2,0-4.3,0-6.5,0c-0.3,0-0.5-0.1-0.5-0.4c0-2.7,0-5.4,0-8.1c0-0.1-0.1-0.3,0.1-0.3
			c0.1-0.1,0.2,0.1,0.3,0.2c0.2,0.1,0.3,0.3,0.6,0.4c0.4,0.1,0.7,0,0.9-0.3c0.2-0.3,0.2-0.6,0-0.9c-2-2.8-4.7-4.4-8.2-4.2
			c-2.9,0.1-5.2,1.5-6.9,3.9c-0.5,0.6-0.5,1.1-0.1,1.4c0.4,0.4,0.9,0.2,1.4-0.4c0,0,0.1,0,0.1-0.1c0.2,0.1,0.1,0.3,0.1,0.4
			c0,2.7,0,5.3,0,8c0,0.4-0.1,0.5-0.5,0.5c-2.1,0-4.2,0-6.3,0c-0.4,0-0.5-0.1-0.5-0.5c0-4,0-7.9,0-11.9c0-0.5,0-0.5-0.5-0.3
			c-0.5,0.2-0.9,0.5-1.4,0.7c-0.8,0.4-1.7,0.2-2.1-0.5c-0.4-0.8-0.2-1.6,0.7-2c2.9-1.6,5.8-3.3,8.8-4.9c0.3-0.2,0.5-0.4,0.4-0.8
			c0-2.1,0-4.2,0-6.4c0-0.2,0-0.3,0-0.6c-0.3,0.3-0.5,0.5-0.7,0.7c-0.6,0.7-1.3,0.8-1.9,0.3C7,21.4,7,20.7,7.5,20c2.6-3,5.2-6,7.7-9
			c0.5-0.5,1.1-1,1.3-1.6c0.2-0.6,0.1-1.4,0.1-2.1c0-0.6,0-1.1,0-1.7c0-0.4-0.1-0.5-0.5-0.4c-0.7,0-1.4,0-2.1,0
			c-0.3,0-0.5-0.1-0.4-0.4c0.1-0.5-0.2-1,0.1-1.3C14,3.1,14.6,3.3,15,3.3c0.4,0,0.8,0,1.2,0c0.3,0,0.4-0.1,0.4-0.4
			c0-0.8,0-1.7,0-2.5c0-0.3,0.1-0.4,0.4-0.4c1.3,0,1.3,0,1.3,1.3c0,0.6,0,1.1,0,1.7c0,0.3,0.1,0.4,0.4,0.4c0.8,0,1.5,0,2.3,0
			c0.3,0,0.4,0.1,0.4,0.3c0,0.4,0,0.7,0,1.1c0,0.3-0.1,0.4-0.4,0.4c-0.7,0-1.5,0-2.2,0c-0.3,0-0.4,0.1-0.4,0.4c0,1.2,0,2.3,0,3.5
			c0,0.3,0.2,0.5,0.3,0.7c2.9,3.4,5.8,6.8,8.7,10.2c0.7,0.8,0.5,1.8-0.5,2.1c-0.5,0.2-0.9,0-1.2-0.4C25.5,21.4,25.2,21.1,24.9,20.7z
			 M21,21.4c0-2-1.6-3.5-3.5-3.6c-2,0-3.6,1.6-3.6,3.6c0,1.9,1.6,3.5,3.5,3.5C19.4,24.9,21,23.3,21,21.4z"/>
		<path class="st0" d="M16.8,42c0,1.8,0,3.7,0,5.5c0,0.4-0.1,0.5-0.4,0.5c-1,0-2.1,0-3.1,0c-0.3,0-0.4-0.1-0.4-0.4
			c0-3.2,0-6.4,0-9.6c0-0.2,0-0.3,0.1-0.4c1-0.7,2.1-1.4,3.4-1.6c0.4,0,0.5,0,0.5,0.4C16.7,38.3,16.8,40.2,16.8,42z"/>
		<path class="st0" d="M17.7,42c0-1.8,0-3.7,0-5.5c0-0.4,0.1-0.5,0.4-0.4c1.3,0.2,2.3,0.8,3.3,1.5c0.1,0.1,0.1,0.2,0.1,0.4
			c0,3.2,0,6.4,0,9.7c0,0.3-0.1,0.4-0.4,0.4c-1,0-2.1,0-3.1,0c-0.3,0-0.4-0.1-0.4-0.4C17.8,45.7,17.7,43.8,17.7,42z"/>
	</g>
</g>
</svg>
