<!-- Generator: Adobe Illustrator 21.1.0, SVG Export Plug-In  -->
<svg version="1.1"
	 xmlns="http://www.w3.org/2000/svg" xmlns:xlink="http://www.w3.org/1999/xlink" xmlns:a="http://ns.adobe.com/AdobeSVGViewerExtensions/3.0/"
	 x="0px" y="0px" width="40px" height="48px" viewBox="0 0 40 48" style="overflow:scroll;enable-background:new 0 0 40 48;"
	 xml:space="preserve">
<style type="text/css">
	.st0{fill:#B3B3B3;}
</style>
<defs>
</defs>
<g id="h3k5pK.tif_1_">
	<g>
		<path class="st0" d="M1.9,48c-0.4-0.2-0.8-0.3-1.2-0.6c-0.7-0.6-0.9-1.3-0.7-2.2C0.4,44.1,0.8,43,1.2,42c0.9-2.1,1.9-4.1,2.6-6.2
			C4,35.2,4.2,34.6,4.4,34c0-0.1,0.1-0.3,0-0.4C4,32.9,4,32,3.6,31.3c-0.1-0.3-0.3-0.5-0.5-0.7c-0.3-0.5-0.4-1-0.5-1.5
			c0-0.6-0.1-1.3-0.1-1.9c0-0.2,0.1-0.3,0.3-0.3C4.1,27,5.3,27,6.6,27.1c0.9,0,1.7,0.1,2.6,0.1c0.3,0,0.4,0.1,0.4,0.4
			c-0.1,0.7,0.2,1.2,0.8,1.6c2.3,1.9,4,4.1,5.4,6.7c1.5,2.7,2.4,5.6,2.8,8.7c0,0.2,0.1,0.5,0.1,0.7c0.2,1.8-1.2,2.5-2.5,2.2
			c-1.1-0.2-1.8-1-1.9-2.1c-0.3-3.1-1.3-6.1-3-8.8c-0.5-0.8-1-1.5-1.6-2.1c-0.1-0.1-0.1-0.1-0.2-0.1c-0.1,0-0.1,0.1-0.1,0.2
			c-0.3,1.6-0.9,3.1-1.6,4.5c-0.8,1.7-1.8,3.4-2.5,5.2c-0.2,0.6-0.5,1.1-0.6,1.7c-0.2,1-0.7,1.7-1.7,2C2.5,48,2.2,48,1.9,48z"/>
		<path class="st0" d="M3.7,0C3.8,0.1,4,0.1,4.2,0.1c1.5,0.1,2.9,0.2,4.4,0.2c0.3,0,0.3,0.1,0.3,0.3c0,0.6-0.1,1.1-0.1,1.7
			c0,0.2-0.1,0.3-0.3,0.3C6.7,2.5,4.8,2.4,3,2.3C2.7,2.3,2.7,2.2,2.7,2c0-0.7,0.1-1.3,0.1-2C3.1,0,3.4,0,3.7,0z"/>
		<path class="st0" d="M20.1,16.6c0.2-0.9,0.4-1.7,0.7-2.5c1.2-2.7,3.2-4.5,6.1-5.3c0.1,0,0.1,0,0.2-0.1c0.3-0.1,0.7-0.1,0.9-0.2
			c0.2-0.2,0-0.5,0-0.8c0.1-0.7,0.6-1.2,1.3-1.3c0.3,0,0.4-0.1,0.3-0.4c0-0.2,0-0.4,0-0.7c0-0.3,0.1-0.5,0.4-0.5
			c0.3,0,0.4,0.2,0.4,0.5c0,0.2,0,0.4,0,0.7c0,0.3,0.1,0.4,0.3,0.4c0.9,0.1,1.5,0.9,1.3,1.8c-0.1,0.3,0,0.4,0.3,0.4
			c1.2,0.2,2.4,0.7,3.4,1.4c2.3,1.6,3.8,3.8,4.2,6.6c0.1,0.5,0.1,1.1,0.1,1.6c0,7.3,0,14.7,0,22c0,0.5,0,0.5-0.5,0.5
			c-6.4,0-12.8,0-19.1,0c-0.4,0-0.4-0.1-0.4-0.4c0-7,0-14,0-20.9c0-0.1,0-0.3,0-0.6c-0.8,0.9-1.9,0.8-2.9,0.9
			c-0.3,0-0.4-0.1-0.4-0.4c0.1-1.2,0.1-2.4,0.2-3.6c0-0.3-0.1-0.4-0.4-0.4c-1,0-1,0-1,0.9c-0.1,1-0.1,2.1-0.1,3.1
			c0,0.3,0,0.4,0.3,0.4c0.2,0,0.4,0,0.6,0c0.4,0,0.5,0.2,0.4,0.6c0,0.1-0.1,0.1-0.2,0.1c-0.2,0-0.4,0-0.6,0c-0.4,0-0.6,0-0.5-0.5
			c0-0.2-0.1-0.2-0.3-0.2c-0.6-0.1-1.1-0.1-1.7-0.2c-1.2-0.2-2.4-0.5-3.5-0.9c-0.4-0.1-0.4-0.1-0.4,0.3c0,2.4,0,4.8,0,7.1
			c0,0.4-0.1,0.4-0.4,0.4C7,26.2,5,26.1,3,26c-0.3,0-0.4-0.1-0.4-0.4c0-1.9,0-3.7,0-5.6c0-2.5-0.1-5-0.3-7.5c-0.2-2,1.5-3.4,3.1-3.5
			c2-0.2,3.4,1.1,3.7,2.9c0.1,0.4,0.1,0.7,0.1,1.1c0,0.2,0.1,0.3,0.2,0.4c1.7,0.8,3.4,1.4,5.3,1.7c0.2,0,0.3,0,0.5,0.1
			c0.2,0,0.4,0,0.4-0.3c0-0.2,0.1-0.2,0.3-0.2c0.2,0,0.5,0,0.7,0c0.2,0,0.4,0,0.3,0.3c0,0.2,0.1,0.2,0.2,0.2c0.1,0,0.3,0,0.4,0
			c1-0.1,1.8,0.3,2.4,1.2C20,16.4,20,16.4,20.1,16.6z M21.7,27.9c0,3.5,0,7.1,0,10.6c0,0.4,0.1,0.5,0.5,0.5c5.2,0,10.4,0,15.6,0
			c0.5,0,0.5,0,0.5-0.5c0-6.7,0-13.4,0-20.1c0-1.2-0.1-2.3-0.6-3.4c-0.7-1.7-2-3.1-3.6-4c-1.6-0.9-3.3-1-5-0.9
			c-2.2,0.1-4.1,1.1-5.5,2.8c-1.3,1.5-1.9,3.2-1.9,5.2C21.7,21.3,21.7,24.6,21.7,27.9z"/>
		<path class="st0" d="M5.5,2.9C6.4,3,7.4,3.1,8.3,3.1c0.4,0,0.5,0.2,0.6,0.4c0.8,2-0.5,4.2-2.6,4.6C4.8,8.5,3.6,8,2.7,6.8
			C2,5.6,1.9,4.4,2.5,3.1C2.6,2.9,2.8,2.8,3,2.8C3.9,2.9,4.7,2.9,5.5,2.9C5.5,3,5.5,2.9,5.5,2.9z"/>
		<path class="st0" d="M34.7,47c-1.3,0-2.3-1.1-2.2-2.3c0-1.3,1.1-2.3,2.3-2.2c1.3,0,2.3,1.1,2.2,2.3C37,46,36,47,34.7,47z"/>
		<path class="st0" d="M22.5,44.7c0-1.3,1-2.3,2.3-2.3c1.3,0,2.3,1.1,2.3,2.3c0,1.3-1,2.3-2.3,2.3C23.5,47,22.5,46,22.5,44.7z"/>
		<path class="st0" d="M22.9,25.8c0-2,0-4,0-6c0-0.3,0.1-0.4,0.4-0.4c1.4,0,2.8,0,4.3,0c0.3,0,0.4,0.1,0.4,0.3c0,4.1,0,8.1,0,12.2
			c0,0.3-0.1,0.4-0.4,0.4c-1.4,0-2.8,0-4.3,0c-0.3,0-0.4-0.1-0.4-0.4C22.9,29.8,22.9,27.8,22.9,25.8z"/>
		<path class="st0" d="M32.8,32.2c-1.2,0-2.5,0-3.7,0c-0.3,0-0.4-0.1-0.4-0.4c0-1.9,0-3.8,0-5.7c0-0.3,0.1-0.4,0.4-0.4
			c0.7,0,1.5,0,2.2,0c0.2,0,0.3-0.1,0.3-0.3c0-0.3,0-0.6,0-0.9c0-0.2,0.1-0.3,0.3-0.3c0.7,0,1.5,0,2.2,0c0.3,0,0.3,0.1,0.3,0.3
			c0,0.3,0,0.6,0,0.9c0,0.2,0.1,0.3,0.3,0.3c0.6,0,1.3,0,1.9,0c0.3,0,0.4,0.1,0.4,0.4c0,1.9,0,3.8,0,5.7c0,0.3-0.1,0.4-0.4,0.4
			C35.3,32.2,34,32.2,32.8,32.2z M32.9,25.8c0.1,0,0.2,0,0.2,0c0.7,0,0.7,0,0.7-0.7c0-0.2-0.1-0.3-0.3-0.3c-0.4,0-0.8,0-1.3,0
			c-0.2,0-0.3,0.1-0.3,0.3c0,0.7,0,0.7,0.7,0.7C32.8,25.8,32.9,25.8,32.9,25.8z"/>
		<path class="st0" d="M30.1,33.9c2.1,0,4.3,0,6.4,0c0.3,0,0.4,0.1,0.4,0.4c0,0.9,0,1.9,0,2.8c0,0.3,0,0.4-0.4,0.4
			c-4.3,0-8.6,0-12.9,0c-0.3,0-0.3-0.1-0.3-0.3c0-1,0-1.9,0-2.9c0-0.3,0.1-0.4,0.4-0.4C25.8,33.9,28,33.9,30.1,33.9z"/>
	</g>
</g>
</svg>
