<!-- Generator: Adobe Illustrator 21.1.0, SVG Export Plug-In  -->
<svg version="1.1" xmlns="http://www.w3.org/2000/svg" xmlns:xlink="http://www.w3.org/1999/xlink" xmlns:a="http://ns.adobe.com/AdobeSVGViewerExtensions/3.0/" x="0px" y="0px" width="45px" height="41.4px" viewBox="0 0 45 41.4" style="overflow:scroll;enable-background:new 0 0 45 41.4;" xml:space="preserve">
  <style type="text/css">
  .st0 {
    fill: #B3B3B3;
  }
  </style>
  <defs>
  </defs>
  <g id="dX95Zc.tif_2_">
    <g>
      <path class="st0" d="M35.3,37.6c-0.1,0.8-0.2,1.7-0.4,2.5c-0.1,1-0.5,1.4-1.6,1.4c-7.3,0-14.6,0-21.9,0c-1,0-1.4-0.3-1.6-1.4
			c-0.1-0.8-0.2-1.7-0.3-2.5c0.4,0,0.7-0.1,1.1-0.1c1.3,0,1.3,0,1.2-1.3c0,0,0-0.1,0-0.1c-0.3-2.1,0-1.7-2-1.7
			c-0.5,0-0.7,0.2-0.6,0.7c0.1,0.9,0.2,1.7,0.3,2.6C9,37.4,8.5,37.5,8,37.5c-1,0-1.5-0.4-1.6-1.4c-0.6-3.5-1.1-6.9-1.7-10.4
			c-0.4-2.3-0.7-4.5-1.1-6.8c-0.1-0.3-0.1-0.7-0.1-1c0-0.8,0.4-1.3,1.2-1.4c0.3,0,0.5,0,0.8,0c11.4,0,22.9,0,34.3,0
			c0.2,0,0.3,0,0.5,0c1.1,0.1,1.6,0.7,1.4,1.8c-0.5,2.7-1,5.5-1.5,8.2c-0.5,3.1-1.1,6.1-1.7,9.2c-0.3,1.5-0.6,1.8-2.2,1.8
			C35.9,37.5,35.6,37.4,35.3,37.6c0.1-0.8,0.2-1.7,0.3-2.6c0.1-0.5-0.1-0.7-0.6-0.7c-2-0.1-2-0.1-2.2,1.8c0,0.2,0,0.5-0.1,0.7
			c-0.1,0.5,0.1,0.7,0.6,0.7C34,37.5,34.7,37.4,35.3,37.6z M35.1,28.3c0.2,0,0.5,0,0.7,0c0.6,0.1,0.9-0.2,0.9-0.8
			c0-0.5,0.1-1.1,0.2-1.6c0.1-0.6,0-0.9-0.7-0.9c-0.2,0-0.3,0-0.5,0c-1.8,0-1.8,0-1.9,1.8C33.7,28.3,33.7,28.3,35.1,28.3z
			 M34.9,29.6C34.9,29.6,34.9,29.6,34.9,29.6c-0.3,0-0.6,0-0.9,0c-0.3,0-0.5,0.2-0.5,0.5c-0.1,0.7-0.1,1.5-0.2,2.2
			c-0.1,0.4,0.1,0.6,0.6,0.6c2.1,0.2,2.1,0.2,2.4-1.8c0-0.1,0-0.2,0.1-0.3c0.2-1.2,0.2-1.2-0.9-1.2C35.2,29.6,35.1,29.6,34.9,29.6z
			 M35.8,23.7c0.4-0.1,1.1,0.3,1.4-0.3c0.2-0.5,0.4-1.2,0.3-1.8c-0.1-0.5-0.3-0.8-0.8-1c-1.6-0.4-2.2,0-2.3,1.6c0,0,0,0.1,0,0.1
			C34.2,23.7,34.2,23.7,35.8,23.7z M23.8,22.1c0-1.7,0.2-1.5-1.2-1.5c-1.7,0-1.7,0-1.6,1.7c0,1.4,0,1.4,1.3,1.4
			C23.7,23.7,23.7,24,23.8,22.1z M28.2,22.1c0.1-1.7,0.1-1.5-1.2-1.5c-1.9,0-1.6-0.2-1.7,1.8c0,1.3,0,1.3,1.2,1.3
			C28.5,23.7,28.1,23.7,28.2,22.1z M23.7,26.7c0-0.3,0-0.6,0-0.8c0.1-0.6-0.1-0.9-0.8-0.9c-2.3,0.1-1.9-0.3-1.9,1.9
			c0,0.1,0,0.3,0,0.4c-0.1,0.8,0.3,1,1,1C24,28.3,23.6,28.4,23.7,26.7z M29.9,22.2c0,0.2,0,0.3-0.1,0.5c-0.1,0.7,0.1,1,0.9,1
			c1.8,0,1.8,0,2-1.8c0-0.1,0-0.1,0-0.2c0.2-1.2,0.2-1.2-1.1-1.2C30,20.5,30,20.5,29.9,22.2z M15.1,26.8c0-0.4,0-0.8-0.1-1.2
			c0-0.2-0.1-0.5-0.3-0.6c-0.7-0.1-1.6-0.3-2.2,0c-0.5,0.2-0.1,0.9-0.1,1.3c0,0.2,0,0.4,0,0.6c0.1,1.2,0.1,1.2,1.3,1.2
			C15.2,28.3,15.2,28.3,15.1,26.8z M19.4,26.8c0-0.3,0-0.6,0-0.8c0-0.7-0.2-0.9-0.9-0.9c-1.9,0.1-1.9-0.4-1.7,1.9c0,0.1,0,0.2,0,0.3
			c-0.1,0.8,0.3,1.1,1.1,1C19.4,28.3,19.4,28.3,19.4,26.8z M14.8,22.2c-0.1-1.6-0.1-1.6-1.3-1.6c-1.8,0-1.8,0-1.6,1.7
			c0.1,1.4,0.1,1.4,1.5,1.4C14.9,23.7,14.9,23.7,14.8,22.2z M19.2,22.1c0-0.3,0-0.7,0-1c0-0.3-0.1-0.5-0.4-0.5
			c-0.8,0-1.7-0.3-2.3,0.2c-0.5,0.4,0,1.2,0,1.8c0,0,0,0.1,0,0.1c-0.1,0.9,0.3,1.1,1.2,1.1C19.3,23.6,19.3,24,19.2,22.1z M23.6,31.3
			C23.6,31.3,23.6,31.3,23.6,31.3c0-0.4,0-0.8,0-1.2c0-0.3-0.1-0.4-0.4-0.5c-1.8-0.3-2.1-0.1-2,1.7c0,0.3,0,0.6,0,0.8
			c0,0.5,0.2,0.7,0.8,0.7C23.5,33,23.5,33,23.6,31.3C23.6,31.4,23.6,31.3,23.6,31.3z M29.5,27c0,0,0,0.2,0,0.4
			c-0.1,0.7,0.1,1,0.9,0.9c1.9-0.1,1.6,0.3,1.9-1.7c0-0.3,0-0.5,0.1-0.8c0.1-0.6-0.1-0.8-0.8-0.9C29.7,25,29.7,25,29.5,27z
			 M25.3,26.6c0,1.6,0,1.6,1.5,1.7c0.8,0,1.1-0.2,1.1-1c0-0.4,0-0.7,0.1-1.1C28,25,28,25,26.9,25C25.1,25,25.3,24.8,25.3,26.6z
			 M10.2,33c1.3,0,1.3,0,1.1-1.3c0-0.4-0.1-0.9-0.1-1.3c0-0.6-0.3-0.7-0.9-0.7c-1.9,0-1.9,0-1.6,1.9c0,0.1,0,0.2,0,0.2
			C9,33,9,33,10.2,33z M19.5,31.4c0-0.3,0-0.6,0-0.9c0-0.6-0.2-0.8-0.8-0.8c-1.9,0-1.8-0.3-1.7,1.8c0,0.3,0.1,0.7,0.1,1
			c0,0.4,0.2,0.5,0.6,0.6C19.4,33.1,19.5,33.1,19.5,31.4z M9.4,25c-0.1,0-0.3,0-0.4,0c-0.7-0.1-1,0.2-0.9,1c0.1,0.6,0.2,1.2,0.3,1.8
			c0,0.3,0.1,0.5,0.4,0.5c0.7,0,1.4,0.2,2-0.1c0.5-0.3,0-1,0-1.5c0-0.1,0-0.2,0-0.3C10.6,25,10.6,25,9.4,25z M25.2,31.3
			C25.1,33,25.1,33,26.6,33c0.7,0,1-0.3,1-1c0-0.6,0-1.2,0.1-1.8c0-0.4-0.1-0.5-0.5-0.6C25.3,29.5,25.2,29.5,25.2,31.3z M15.4,31.5
			c0-0.4,0-0.8-0.1-1.3c0-0.3-0.1-0.5-0.5-0.6c-1.9-0.3-2.2,0-1.9,1.8c0,0.3,0.1,0.7,0.1,1c0,0.3,0.1,0.5,0.4,0.5
			C15,33.3,15.5,32.9,15.4,31.5z M30.4,33c1.2,0,1.2,0,1.3-1.2c0-0.5,0.1-1,0.1-1.5c0-0.4-0.1-0.6-0.6-0.6c-1.8-0.2-1.8-0.2-2,1.6
			c0,0.2,0,0.3-0.1,0.5C29.1,32.9,29.1,33,30.4,33z M8.9,23.7c0.4,0,0.7,0,1.1,0c0.3,0,0.4-0.1,0.4-0.4c-0.1-0.8-0.2-1.6-0.3-2.4
			c0-0.1-0.1-0.2-0.2-0.2c-0.7,0-1.4-0.3-1.9,0.3c-0.8,0.7-0.4,1.7-0.2,2.5C8,24,8.6,23.5,8.9,23.7z M29.9,37.5c1.1,0,1.1,0,1.2-1.1
			c0-0.4,0.1-0.9,0.2-1.3c0.1-0.5-0.1-0.7-0.6-0.7c-1.6-0.1-1.6-0.1-1.8,1.5c0,0.2,0,0.3-0.1,0.5C28.8,37.4,28.8,37.5,29.9,37.5z
			 M15.7,36c-0.1-1.8-0.1-1.8-1.8-1.7c0,0-0.1,0-0.1,0c-0.4,0-0.5,0.2-0.5,0.5c0.1,0.8,0.2,1.5,0.3,2.3c0,0.2,0.2,0.3,0.4,0.4
			C15.4,37.8,15.8,37.5,15.7,36C15.7,36.1,15.7,36,15.7,36z M27.4,35.8c0.1-1.6,0.1-1.6-1.5-1.5c-0.5,0-0.8,0.2-0.8,0.7
			c0,0.6,0,1.2,0,1.9c0,0.3,0.1,0.5,0.5,0.6c1.4,0.3,1.7,0,1.8-1.4C27.3,36,27.3,35.9,27.4,35.8z M19.6,36C19.6,36,19.5,36,19.6,36
			c0-0.4,0-0.7,0-1.1c0-0.3-0.1-0.5-0.4-0.5c-1.6-0.4-2,0-1.8,1.6c0,0.4,0.1,0.7,0.1,1.1c0,0.3,0.1,0.4,0.5,0.5
			C19.4,37.7,19.6,37.5,19.6,36C19.6,36,19.6,36,19.6,36z M23.5,35.9C23.5,35.9,23.5,35.9,23.5,35.9c0-0.3,0-0.7,0-1
			c0-0.3-0.1-0.5-0.4-0.5c-1.4-0.4-1.9,0-1.9,1.4c0,0.4,0,0.8,0,1.2c0,0.3,0.1,0.5,0.4,0.6c1.3,0.3,1.8,0,1.8-1.3
			C23.5,36.1,23.5,36,23.5,35.9z" />
      <path class="st0" d="M22.5,14.8c-4.6,0-15.8,0-20.4,0c-0.9,0-1.6-0.3-1.9-1.2c-0.3-0.8-0.2-1.5,0.4-2.2c0.3-0.4,0.8-0.6,1.3-0.6
			c3.6,0,13.8,0,17.3,0c0.3,0,0.4,0.1,0.4,0.5c0,0.8,0.3,1.4,0.9,1.9c0.7,0.4,1.5,0.5,2.1,0c0.9-0.6,1.8-1.4,2.7-2.1
			c0.2-0.2,0.5-0.3,0.8-0.3c3.4,0,13.5,0,16.9,0c0.8,0,1.4,0.4,1.8,1.1c0.3,0.7,0.3,1.4-0.2,2.1c-0.4,0.6-1.1,0.8-1.8,0.8
			c-4.4,0-15.5,0-19.9,0C22.8,14.8,22.6,14.8,22.5,14.8z" />
      <path class="st0" d="M20.8,10.7c0-0.4,0.2-0.7,0.5-1c1.9-1.5,3.9-3.1,5.8-4.6c2-1.6,4.1-3.2,6.1-4.8c0.6-0.5,1.3-0.5,1.7,0
			c0.5,0.5,0.4,1.3-0.2,1.8c-2.5,2-5,3.9-7.5,5.9c-1.5,1.2-2.9,2.3-4.4,3.5c-0.7,0.5-1.4,0.4-1.8-0.2C20.9,11.1,20.8,10.9,20.8,10.7
			z" />
    </g>
  </g>
</svg>