<!-- Generator: Adobe Illustrator 21.1.0, SVG Export Plug-In  -->
<svg version="1.1"
	 xmlns="http://www.w3.org/2000/svg" xmlns:xlink="http://www.w3.org/1999/xlink" xmlns:a="http://ns.adobe.com/AdobeSVGViewerExtensions/3.0/"
	 x="0px" y="0px" width="60.5px" height="59.2px" viewBox="0 0 60.5 59.2"
	 style="overflow:scroll;enable-background:new 0 0 60.5 59.2;" xml:space="preserve">
<style type="text/css">
	.st0{fill:#B3B3B3;}
</style>
<defs>
</defs>
<g id="l7SmX9.tif_1_">
	<g>
		<path class="st0" d="M55.7,52.3c0-1.3,0-2.6,0-4c0-0.5-0.1-0.9-0.5-1.3c-1.6-1.6-3.3-3.2-4.9-4.9c-0.5-0.5-0.8-0.5-1.3,0
			c-5.3,5.3-10.6,10.6-16,16c-0.6,0.6-1.3,1.1-2.3,1c-0.9-0.1-1.6-0.6-2-1.5c-0.4-0.8-0.2-1.6,0.3-2.3c0.3-0.3,0.6-0.6,0.9-0.9
			c4.1-4.1,8.2-8.2,12.3-12.2c0.5-0.5,0.5-0.8,0-1.3c-3.1-3-6.1-6.1-9.2-9.2c-0.5-0.5-0.7-0.5-1.2,0c-1.8,1.9-3.7,3.8-5.6,5.6
			c-1.3,1.3-2.5,1.3-3.8,0c-2.2-2.2-4.4-4.4-6.7-6.6C15,29.9,14.7,29,15,27.9c0.1-0.4,0-0.6-0.3-0.9c-0.9-0.8-1.7-1.7-2.5-2.5
			c-0.2-0.2-0.4-0.4-0.8-0.3c-1.2,0.5-2.4,0.4-3.6,0c-2.5-0.7-4.6-2-6.4-3.8c-1.9-1.9-1.9-5.5-0.1-7.4c1.8-1.9,5.4-2,7.3-0.1
			c2.1,2,3.6,4.4,4.2,7.3c0.2,0.9,0.2,1.8-0.1,2.6c-0.2,0.4-0.1,0.7,0.2,1c0.6,0.6,1.2,1.2,1.8,1.8c0.6,0.7,1.2,1.3,2.3,0.8
			c0.8-0.3,1.5,0.2,2.1,0.8c1.5,1.5,3.1,3,4.5,4.6c0.6,0.6,0.9,0.6,1.5,0C32.9,24,40.7,16.2,48.5,8.4c0.5-0.5,1-1,1.8-1
			c1-0.1,1.9,0.4,2.4,1.3c0.5,0.9,0.4,1.9-0.3,2.7c-0.4,0.5-0.9,1-1.4,1.4c-3.7,3.7-7.3,7.4-11,11c-0.5,0.5-0.6,0.8,0,1.3
			c6.5,6.5,13,13,19.5,19.5c0.8,0.8,1.2,1.7,1.2,2.9c-0.1,3,0,6.1,0,9.1c0,1.6-0.9,2.7-2.4,2.7c-1.4,0-2.4-1.1-2.4-2.7
			c0-0.7,0-1.4,0-2.1C55.7,53.7,55.7,53,55.7,52.3C55.7,52.3,55.7,52.3,55.7,52.3z M5.3,13.2c-1.5,0-2.7,0.5-3.4,2
			c-0.6,1.5-0.6,3,0.6,4.3c1.7,1.8,3.7,3,6.1,3.5c2.1,0.4,3.1-0.6,2.7-2.7c-0.4-2.3-1.6-4.1-3.1-5.8C7.4,13.6,6.4,13.2,5.3,13.2z"/>
		<path class="st0" d="M29.1,24c-2.6,0-4.7-2.2-4.7-4.8c0-2.6,2.1-4.7,4.7-4.8c2.6,0,4.8,2.1,4.8,4.7C33.9,21.8,31.7,24,29.1,24z"/>
		<path class="st0" d="M18.4,3.6c-0.4,0.2-0.6,0.6-0.6,1c0,0.7-0.4,0.7-0.9,0.6C16.6,5.1,16.3,5,16,4.8c-0.4-0.3-1-0.6-0.9-1.1
			c0.1-0.5,0.8-0.4,1.2-0.4C17.5,3.1,18,2.7,18,1.5c0-0.2,0-0.4,0-0.6c0.1-0.6,0.3-0.8,0.9-0.4c0.6,0.4,0.9,1,1,1.7
			C20.1,2.7,20,3,19.4,3C19,3.1,18.6,3.2,18.4,3.6L18.4,3.6z"/>
		<path class="st0" d="M14.8,2.6C14.8,1.2,16,0,17.3,0c0.4,0,0.7,0,0.5,0.6c-0.1,0.3-0.1,0.6-0.1,0.9c-0.1,0.9-0.5,1.4-1.4,1.5
			c-0.3,0-0.6,0-0.9,0.1C14.8,3.3,14.8,3,14.8,2.6z"/>
		<path class="st0" d="M18.4,3.6C18.4,3.6,18.4,3.6,18.4,3.6c0.5-0.1,0.9-0.4,1.3-0.2c0.2,0.1,0.1,0.3,0,0.4c-0.3,0.6-0.7,1-1.3,1.2
			c-0.3,0.1-0.3-0.2-0.3-0.4C18.2,4.2,18.3,3.9,18.4,3.6L18.4,3.6z"/>
	</g>
</g>
</svg>
