<!-- Generator: Adobe Illustrator 21.1.0, SVG Export Plug-In  -->
<svg version="1.1"
	 xmlns="http://www.w3.org/2000/svg" xmlns:xlink="http://www.w3.org/1999/xlink" xmlns:a="http://ns.adobe.com/AdobeSVGViewerExtensions/3.0/"
	 x="0px" y="0px" width="51.1px" height="48px" viewBox="0 0 51.1 48" style="overflow:scroll;enable-background:new 0 0 51.1 48;"
	 xml:space="preserve">
<style type="text/css">
	.st0{fill:#B3B3B3;}
</style>
<defs>
</defs>
<g>
	<path class="st0" d="M25.6,24.5c-6.4,0-12.8,0-19.2,0c-0.5,0-0.6-0.1-0.6-0.6C6.3,14.9,13,7.1,21.9,5.3c0.8-0.2,1.6-0.2,2.5-0.3
		c0.2,0,0.4,0,0.4-0.3c0-0.2,0.2-0.6-0.3-0.7c-0.5-0.1-1-0.3-1.4-0.6c-1-0.8-1-1.9,0.1-2.6c0.9-0.7,2-0.8,3.1-0.7
		c0.7,0.1,1.4,0.3,1.9,0.7c0.9,0.7,0.9,1.8,0,2.5c-0.4,0.3-0.9,0.5-1.3,0.6c-0.5,0.1-0.4,0.4-0.4,0.7C26.3,5,26.6,5,26.9,5
		c4.3,0.3,8,1.9,11.3,4.6c4.4,3.8,6.8,8.6,7.2,14.4c0,0.5-0.2,0.5-0.5,0.5C38.4,24.5,32,24.5,25.6,24.5L25.6,24.5z M21.3,7.3
		c-0.1,0-0.2,0-0.3,0c-1.6,0.3-3.1,0.9-4.5,1.8c-3.6,2.4-6,5.7-7.6,9.7c-0.3,0.9-0.6,1.8-0.7,2.7c-0.1,0.4,0,0.6,0.5,0.6
		c0.5,0,1.1,0,1.6,0c0.3,0,0.4-0.1,0.4-0.3c0-0.4,0.1-0.7,0.2-1.1c0.7-3.1,2.1-5.8,4-8.3C16.6,10.1,18.5,8.2,21.3,7.3L21.3,7.3z
		 M21.7,8.9c-1.1,0.1-2.1,0.6-3,1.3c-3.6,2.9-5.6,6.8-6.4,11.3c-0.1,0.5,0,0.7,0.5,0.6c0.3,0,0.5,0,0.8,0c0.3,0,0.3-0.1,0.4-0.4
		c0-0.8,0.1-1.5,0.4-2.2C15.7,15.2,18.1,11.5,21.7,8.9L21.7,8.9z M24.6,3.8c-0.4-0.5-0.9-0.9-0.7-1.6c0.2-0.6,0.8-0.8,1.4-1.1
		C24.7,1,24.6,1,24,1.3c-0.7,0.3-0.9,0.7-0.8,1.3C23.3,3.3,23.9,3.8,24.6,3.8L24.6,3.8z"/>
	<path class="st0" d="M27.6,37.5c0.9,0.1,1.8,0.1,2.6,0c0.3,0,0.5-0.1,0.7-0.2c3.2-1.4,6.4-2.6,9.6-3.9c0.4-0.1,0.7-0.2,1.1-0.2
		c0.4,0,0.7,0.1,0.8,0.6c0.1,0.4,0.1,0.8-0.3,1.1c-0.3,0.3-0.6,0.5-1,0.7c-3.3,2.3-6.7,4.6-10.1,6.8c-0.2,0.1-0.4,0.2-0.6,0.2
		c-4,0.1-7.9,0.2-11.9,0.3c-1.5,0-2.8,0.4-4.2,0.8c-0.3,0.1-0.4,0-0.5-0.3c-0.5-2.6-1-5.2-1.5-7.8c-0.1-0.3,0-0.4,0.3-0.5
		c1.9-0.8,3.8-1.6,5.7-2.3c0.9-0.3,1.8-0.4,2.7-0.4c2.6,0,5.2,0,7.7,0c0.2,0,0.5,0,0.7,0.2c0.5,0.2,0.7,0.6,0.7,1.1
		c0,0.5-0.4,0.8-0.9,0.9c-1.2,0.3-2.3,0.6-3.5,0.8c-0.8,0.2-1.6,0.4-2.4,0.6c-0.4,0.1-0.6,0.3-0.6,0.7c0,0.4,0.3,0.6,0.7,0.7
		c0.7,0.1,1.3,0.1,2,0.1C26.3,37.6,26.9,37.5,27.6,37.5L27.6,37.5z"/>
	<path class="st0" d="M0,26.2h51.1c0,0.3-0.3,0.5-0.5,0.7c-0.9,0.6-1.8,0.9-2.9,0.9c-0.7,0-1.3,0-2,0c-0.3,0-0.4,0.1-0.6,0.3
		c-0.7,0.9-1.4,1.7-2.2,2.4c-0.5,0.4-1,0.6-1.7,0.6c-10.5,0-21,0-31.6,0c-1.6,0-2.7-0.9-3.6-2.1c-0.3-0.4,0-0.3,0.3-0.3
		c3.1,0,6.1,0,9.2,0c2.6,0,5.2,0,7.8,0c0.3,0,0.5,0,0.5-0.4c0-0.5-0.2-0.4-0.5-0.4c-6.6,0-13.1,0-19.7,0c-1.1,0-2.1-0.3-3-0.8
		C0.4,26.8,0.1,26.6,0,26.2L0,26.2z"/>
	<path class="st0" d="M4.1,48V37.6c0-0.7,0-1.5,0-2.2c0-0.4,0.1-0.5,0.5-0.6c1.7-0.2,3.3-0.5,5-0.7C10,34,9.9,34.3,10,34.5
		c0.4,1.9,0.8,3.7,1.2,5.6c0.4,1.8,0.8,3.6,1.2,5.4c0.1,0.2,0.1,0.4-0.2,0.4c-2.6,0.7-5.3,1.4-7.9,2.1C4.2,48,4.2,48,4.1,48L4.1,48z
		 M8.7,45.2c0.7,0,1.3-0.6,1.3-1.3c0-0.7-0.5-1.2-1.3-1.2c-0.7,0-1.3,0.5-1.2,1.3C7.4,44.7,8,45.2,8.7,45.2L8.7,45.2z"/>
</g>
</svg>
