<!-- Generator: Adobe Illustrator 21.1.0, SVG Export Plug-In  -->
<svg version="1.1"
	 xmlns="http://www.w3.org/2000/svg" xmlns:xlink="http://www.w3.org/1999/xlink" xmlns:a="http://ns.adobe.com/AdobeSVGViewerExtensions/3.0/"
	 x="0px" y="0px" width="58.4px" height="48px" viewBox="0 0 58.4 48" style="overflow:scroll;enable-background:new 0 0 58.4 48;"
	 xml:space="preserve">
<style type="text/css">
	.st0{fill:#B3B3B3;}
</style>
<defs>
</defs>
<g id="l2maBA.tif_1_">
	<g>
		<path class="st0" d="M31.3,16.6c-1.3,2.2-2.4,4.2-3.6,6.3c-0.8,1.3-1.6,1.5-2.9,0.7C23.9,23.1,23,22.6,22,22
			c0.1,1.3,0.2,2.5,0.3,3.7c0.3,3.6,0.7,7.1,1,10.7c0,0.4-0.1,0.5-0.5,0.5c-2.6,0-5,0-7.6,0c-0.5,0-1-0.3-0.7-1.1l4-11.4
			c0.4-1,0.1-1.3-0.3-1.6c-0.5-0.3-0.3-0.9,0.2-0.9c1.1,0,2.1,0,3.2,0c0-0.3-0.2-0.3-0.3-0.3c-1-0.6-2.1-1.2-3.1-1.9
			c-0.9-0.6-1.2-1.5-0.7-2.4c0.5-0.9,1.5-1.1,2.5-0.5c1.6,1,3.2,2,4.8,3c0.3,0.2,0.5,0.2,0.7-0.2c1.5-2.6,2.9-5.1,4.4-7.7
			c0.4-0.7,0.9-1.1,1.7-1.2c2.7-0.3,5.3-0.7,8-1c0.7-0.1,1.2,0.2,1.7,0.5c2.8,2.2,5.6,4.3,8.4,6.5c0.3,0.2,0.5,0.3,0.9,0.1
			c0.6-0.2,1.1,0,1.5,0.4c1,0.9,1.5,2.1,1.7,3.4c0,0.2,0,0.3-0.3,0.4c-0.2,0-0.3,0-0.4-0.3c-0.2-0.9-0.4-1.7-1-2.5
			c-0.3-0.4-0.6-0.7-1-0.8c-0.1,0-0.2-0.1-0.4,0c-0.1,0.1,0,0.2,0,0.3c0.4,1.1,0.1,2-1,2.4c-0.5,0.2-0.3,0.6-0.3,0.9
			c0,0.3,0.1,0.5-0.3,0.6c-0.4,0-0.4-0.3-0.3-0.5c0.1-0.6-0.2-1-0.7-1.3c-2.2-1.7-4.4-3.4-6.7-5.1c-0.2-0.1-0.3-0.2-0.6-0.4
			c0.1,1,0.1,1.8,0.2,2.7c0.3,3.8,0.5,7.6,0.8,11.5c0,0.3,0.1,0.6,0.2,0.8c0.5,1.1,1.1,2.3,1.6,3.4c0.2,0.4,0.4,0.6,0.8,0.8
			c2.5,1.1,5,2.3,7.4,3.4c1.2,0.6,1.8,1.8,1.5,3c-0.4,1.5-2,2.4-3.4,1.7c-3.1-1.4-6.1-2.8-9.1-4.2c-0.6-0.3-1-0.8-1.2-1.4
			c-0.9-1.9-1.8-3.8-2.6-5.7c-0.3-0.7-0.9-0.4-1.3-0.5c-0.5-0.1-0.4,0.4-0.5,0.6c-1.3,5.2-2.6,10.3-3.9,15.5c-0.3,1.2-1.3,2-2.5,2
			c-1.2,0-2.1-0.7-2.5-1.8c-0.2-0.5-0.1-1,0-1.5c1.6-6.2,3.1-12.5,4.7-18.7c0-0.2,0.1-0.4,0.1-0.6c0-2.8,0-5.6,0-8.4
			C31.4,16.9,31.4,16.9,31.3,16.6z"/>
		<path class="st0" d="M15,22.2c-0.1,0.3-0.3,0.7-0.5,1c-0.1,0.2-0.1,0.4,0.2,0.5c0,0,0,0,0.1,0c1.1,0.6,1.2,0.6,1.7-0.5
			c0.2-0.4,0.3-0.4,0.7-0.2c1,0.5,1,0.5,0.6,1.5c-1.6,4.3-3.2,8.6-4.8,12.9c-0.2,0.5-0.3,0.6-0.8,0.3c-3.9-2.1-7.8-4.1-11.7-6.1
			c-0.5-0.2-0.5-0.4-0.2-0.8c2.7-3.9,5.4-7.7,8-11.6c0.3-0.4,0.5-0.6,0.9-0.2c0,0,0.1,0.1,0.2,0.1c0.8,0.4,0.8,0.4,0.3,1.2
			c-0.3,0.5-0.3,0.8,0.3,1c0.2,0,0.3,0.1,0.4,0.2c0.3,0.2,0.5,0.1,0.6-0.2c0.6-1.1,0.6-1,1.7-0.5c0.7,0.3,1.3,0.7,2,1
			C14.8,21.9,15,21.9,15,22.2z"/>
		<path class="st0" d="M47.5,26.8c0-1.8,0-3.5,0-5.3c0-0.8,0.6-0.5,0.9-0.6c0.5-0.1,0.3,0.3,0.4,0.5c0.1,0.2-0.1,0.5,0.2,0.6
			c0.3,0,0.7,0,1.1-0.2c0.2-0.1,0-0.4,0-0.6c0-0.4,0-0.6,0.5-0.7c0.6,0,1.2-0.2,1.8-0.3c0.4-0.1,0.6,0,0.6,0.4
			c0.1,0.7,0.6,0.9,1.2,0.6c0.3-0.2,0.1-0.5,0.1-0.7c0-0.3-0.3-0.6,0.3-0.6c0.4,0,0.8-0.3,1,0.4c0.9,3.4,1.9,6.9,2.8,10.3
			c0.1,0.5,0,0.5-0.4,0.6c-3.2,0.4-6.4,0.9-9.6,1.4c-0.6,0.1-0.7-0.1-0.7-0.7c0-1.7,0-3.4,0-5.1C47.6,26.8,47.6,26.8,47.5,26.8z"/>
		<path class="st0" d="M30.1,4.6c0-2.5,2-4.6,4.6-4.6c2.5,0,4.6,2,4.6,4.6c0,2.5-2.1,4.6-4.6,4.6C32.2,9.2,30.1,7.1,30.1,4.6z"/>
		<path class="st0" d="M16.8,19.5c-0.1,1.5-0.4,2.7-1,3.9c-0.1,0.3-0.3,0.3-0.5,0.2c-0.2-0.1-0.5-0.2-0.3-0.5c0.5-0.9,0.8-1.9,0.9-3
			c0.1-0.6,0-1.1-0.1-1.6c-0.3-0.8-0.8-1.1-1.7-0.9c-1,0.3-1.6,0.9-2.3,1.7c-0.4,0.5-0.8,1-1.1,1.6c-0.2,0.4-0.4,0.1-0.6,0
			c-0.3-0.1-0.3-0.2-0.1-0.5c0.8-1.3,1.6-2.5,2.9-3.3c0.5-0.3,1.1-0.5,1.7-0.5c1,0,1.7,0.7,2,1.8C16.8,18.9,16.8,19.3,16.8,19.5z"/>
	</g>
</g>
</svg>
