<!-- Generator: Adobe Illustrator 21.1.0, SVG Export Plug-In  -->
<svg version="1.1"
	 xmlns="http://www.w3.org/2000/svg" xmlns:xlink="http://www.w3.org/1999/xlink" xmlns:a="http://ns.adobe.com/AdobeSVGViewerExtensions/3.0/"
	 x="0px" y="0px" width="67.5px" height="48px" viewBox="0 0 67.5 48" style="overflow:scroll;enable-background:new 0 0 67.5 48;"
	 xml:space="preserve">
<style type="text/css">
	.st0{fill:#B3B3B3;}
</style>
<defs>
</defs>
<g id="Qi2uwV.tif_1_">
	<g>
		<path class="st0" d="M0,25.2c0.5-1,0.8-2.1,1.1-3.1c0.9-2.5,1.7-5,2.6-7.5C4,13.7,4.3,13,4.5,12.2c0.1-0.4,0-0.5-0.3-0.5
			c-0.7,0-1.4,0-2.1,0c0-0.3,0.2-0.5,0.4-0.6c1.4-1.5,1.9-3.3,1.9-5.3c0-1.1,0-2.1,0.5-3.1c0.7-1.7,2-2.4,3.8-2.7
			c1-0.1,2-0.1,3.1,0.1c1.7,0.3,2.6,1.2,2.9,3c0.1,0.8,0.2,1.7,0.3,2.5c0.1,1.7,0.8,3.2,1.5,4.6c0.2,0.4,0.4,0.7,0.6,1.1
			c0.2,0.3,0.1,0.4-0.2,0.4c-0.6,0-1.2,0-1.8,0c-0.4,0-0.6,0.1-0.4,0.5c1,2.9,2,5.8,3,8.7c0.5,1.3,0.9,2.6,1.4,3.9
			c0.1,0.2,0.2,0.4-0.1,0.6c-0.2,0.1-0.1,0.2,0,0.3c0.1,0.1,0.3,0.3,0.4,0.4c0.4,0.3,0.7,0.7,1.1,0.9c0.5,0.2,0.7-0.5,1.1-0.6
			c0.3-0.1,0.6-0.3,1-0.3c0.4-0.1,0.5-0.3,0.6-0.7c0.1-0.8,0.3-1.6,0.7-2.4c0.4-1,1.2-1.7,2.3-2c3.1-0.9,6.1,1,6.4,4.2
			c0,0.4,0.2,0.5,0.5,0.7c1.2,0.4,2,1.3,2.4,2.4c0.5,1.3-0.2,2.3-1.6,2.5c-0.4,0-0.5,0-0.5-0.4c0-1-0.3-1.8-0.7-2.7
			c0-0.1-0.1-0.3-0.2-0.3c-0.1,0-0.1,0.2-0.2,0.3c-0.7,2-2.6,3.2-4.6,3.2c-2.1,0-3.9-1.4-4.5-3.4c0-0.1,0-0.3-0.2-0.3
			c-0.2,0-0.2,0.2-0.3,0.3c0,0,0,0.1-0.1,0.1c-0.6,0.9-0.6,1,0.3,1.7c0.6,0.5,1.1,1,1.7,1.5c0.3,0.3,0.6,0.4,1,0.4
			c1.5,0,3.1,0,4.6,0c0.3,0,0.6,0.1,0.8,0.4c1.7,2,3.3,3.9,5,5.9c0.3,0.3,0.4,0.3,0.7,0c1.7-1.9,3.4-3.7,5.1-5.6
			c0.2-0.2,0.4-0.3,0.7-0.3c1.6,0,3.1,0,4.7,0c0.3,0,0.5,0.1,0.6,0.3c1.4,1.7,2.8,3.4,4.1,5.1c0.3,0.4,0.5,0.4,0.8,0
			c1.4-1.7,2.8-3.4,4.2-5.2c0.2-0.3,0.4-0.4,0.8-0.4c1.6,0,3.1,0,4.7,0c0.3,0,0.5,0.1,0.7,0.3c1.3,1.8,2.6,3.5,3.9,5.3
			c0.4,0.5,0.4,0.5-0.2,0.7c-1.3,0.3-1.3,0.3-2.1-0.8c-0.7-0.9-1.3-1.7-2-2.6c-0.1,0.9-0.4,1.7,0.1,2.6c0.9,1.6,1.7,3.2,2.5,4.8
			c0.2,0.3,0.1,0.4-0.3,0.4c-0.7,0-1.4,0-2.2,0c-0.3,0-0.5,0.1-0.5,0.5c0,1.4,0,2.8,0,4.3c0,0.3,0,0.5,0.4,0.5
			c0.2,0,0.2,0.2,0.2,0.3c0,0.2-0.1,0.2-0.2,0.2c-0.6,0-1.2,0-1.8,0c-0.3,0-0.3-0.3-0.3-0.5c0-1.6,0-3.2,0-4.8
			c0-0.3-0.1-0.5-0.5-0.5c-0.3,0-0.5,0.1-0.5,0.5c0,1.6,0,3.1,0,4.7c0,0.5-0.1,0.7-0.6,0.6c-0.5,0-0.9,0-1.4,0c-0.2,0-0.3,0-0.4-0.2
			c0-0.2,0-0.4,0.3-0.4c0.3,0,0.2-0.2,0.2-0.4c0-1.4,0-2.9,0-4.3c0-0.4-0.2-0.4-0.5-0.4c-1,0-1.9,0-2.9,0c-0.5,0-0.5-0.1-0.3-0.5
			c0.9-1.5,1.7-3,2.6-4.4c0.6-0.8,0.6-1.6,0.3-2.6c-0.5,0.5-0.9,1.1-1.4,1.6c-0.7,0.8-1.3,1.5-2,2.3c-0.1,0.2-0.3,0.3-0.5,0.2
			c-0.5-0.2-1,0-1.4,0.1c-0.3,0.1-0.5,0-0.8-0.2c-0.8-0.8-1.6-1.6-2.4-2.4c-0.1-0.1-0.3-0.3-0.5-0.4c-0.2,0.2-0.1,0.4-0.1,0.6
			c0,1.8,0,3.5,0,5.3c0,0.5-0.1,0.7-0.6,0.6c-0.3-0.1-0.4,0.1-0.4,0.4c0,1.4,0,2.8,0,4.2c0,0.3,0,0.5,0.3,0.5c0.2,0,0.2,0.2,0.2,0.3
			c0,0.2-0.1,0.2-0.2,0.2c-0.6,0-1.3,0-1.9,0c-0.3,0-0.2-0.3-0.2-0.4c0-1.6,0-3.2,0-4.8c0-0.4-0.1-0.5-0.5-0.5
			c-0.4,0-0.4,0.2-0.4,0.5c0,1.5,0,3.1,0,4.6c0,0.5-0.1,0.7-0.6,0.6c-0.5,0-0.9,0-1.4,0c-0.2,0-0.3,0-0.3-0.2c0-0.2,0-0.3,0.2-0.4
			c0.3,0,0.3-0.2,0.3-0.4c0-1.4,0-2.9,0-4.3c0-0.3-0.1-0.4-0.4-0.4c-0.4,0.1-0.4-0.2-0.4-0.5c0-1.9,0-3.7,0-5.6
			c0-0.2,0.1-0.4-0.1-0.5c-0.2-0.1-0.3,0.2-0.5,0.3c-1,0.9-2.1,1.8-3.1,2.7c-0.3,0.3-0.6,0.4-1,0.2c-0.6-0.2-1.1-0.3-1.7-0.1
			c-0.3,0.1-0.5-0.1-0.7-0.3c-1.3-1.4-2.6-2.8-3.9-4.3c-0.1-0.1-0.1-0.1-0.3-0.2c-0.1,1.1-0.3,2,0.3,3c0.9,1.4,1.6,3,2.3,4.5
			c0.2,0.3,0.1,0.4-0.3,0.4c-0.7,0-1.4,0-2.2,0c-0.4,0-0.5,0.1-0.5,0.5c0,1.4,0,2.8,0,4.2c0,0.2,0,0.5,0.3,0.5
			c0.2,0,0.2,0.2,0.2,0.3c0,0.2-0.1,0.3-0.3,0.3c0,0-0.1,0-0.1,0c-0.6,0-1.4,0.2-1.8-0.1c-0.4-0.3-0.1-1.1-0.1-1.8
			c0-1.1,0-2.3,0-3.4c0-0.4-0.1-0.5-0.5-0.5c-0.4,0-0.4,0.2-0.4,0.5c0,1.6,0,3.2,0,4.7c0,0.4-0.1,0.6-0.5,0.5c-0.5,0-1,0-1.6,0
			c-0.1,0-0.3,0-0.3-0.2c0-0.2,0-0.4,0.2-0.4c0.4,0,0.3-0.3,0.3-0.5c0-1.4,0-2.8,0-4.2c0-0.3-0.1-0.5-0.5-0.5c-1,0-2,0-3,0
			c-0.4,0-0.5-0.1-0.2-0.4c0.9-1.6,1.8-3.2,2.8-4.7c0.3-0.5,0.4-1,0.4-1.6c0.1-1.2-0.4-2.1-1.3-2.9c-0.4-0.3-0.7-0.7-1.1-1.1
			c-0.3-0.2-0.4-0.6-0.9-0.4C21,31,20.1,30.4,20,29.7c-0.3-1.7-1.8-2.4-2.8-3.5c-0.1-0.2-0.3-0.1-0.4-0.1c-0.4,0.2-0.5,0-0.6-0.3
			c-0.9-2.4-1.7-4.8-2.6-7.2c-0.1-0.3-0.1-0.6-0.4-0.9c-0.2,0.1-0.1,0.3-0.1,0.4c-0.1,1-0.1,2.1-0.1,3.1c0,0.5,0,1,0.2,1.4
			c1.3,3.9,2.5,7.9,3.8,11.8c0.1,0.4,0.1,0.6-0.4,0.5c-1.1,0-2.1,0-3.2,0c-0.4,0-0.5,0.1-0.5,0.5c0,3.5,0,6.9,0,10.4
			c0,0.3,0,0.5,0.4,0.5c0.3,0,0.4,0.1,0.3,0.3c0,0.2,0,0.4,0,0.6c0,0.3-0.1,0.4-0.4,0.4c-0.8,0-1.5,0-2.3,0c-0.4,0-0.5-0.1-0.5-0.5
			c0-2.5,0-5,0-7.5c0-1.4,0-2.8,0-4.2c0-0.6-0.4-0.5-0.7-0.5c-0.4,0-0.6,0-0.6,0.5c0,3.9,0,7.7,0,11.6c0,0.5-0.1,0.6-0.6,0.6
			c-0.7,0-1.5,0-2.2,0c-0.3,0-0.5-0.1-0.4-0.4c0-0.2,0-0.4,0-0.5c0-0.2,0.1-0.4,0.3-0.3c0.3,0,0.4-0.1,0.4-0.4c0-3.5,0-7,0-10.5
			c0-0.4-0.2-0.4-0.5-0.4c-1.5,0-2.9,0-4.4,0c-0.6,0-0.6,0-0.4-0.6c1.3-3.7,2.6-7.5,4.1-11.1c0.7-1.7,0.2-3.2,0.2-4.8
			c-0.1,0-0.1,0-0.2,0c-0.4,1.1-0.8,2.2-1.2,3.3c-0.5,1.3-1,2.7-1.5,4c-0.1,0.3-0.2,0.4-0.5,0.2c-0.7-0.3-1.4-0.6-2.2-0.8
			C0,25.3,0,25.2,0,25.2z M8.1,10.7c-0.2,1.2,0.7,1.8,1.2,2.7c0.1,0.2,0.2,0.2,0.3,0c0.5-0.9,1.4-1.6,1.2-2.9
			c-0.1-0.4,0.1-0.7,0.5-0.9c1.7-0.8,2.5-2.6,2-4.3c-0.1-0.3-0.1-0.6-0.5-0.6c-2-0.1-4-0.5-6.1-0.2c-0.3,0-0.5,0.1-0.6,0.4
			C5.6,6.3,6.1,8.3,7.4,9.2C7.9,9.5,8.3,10,8.1,10.7z M25.4,24.9c-0.4,0.5-0.6,1.1-1.2,1.4c-0.1,0.1-0.1,0.3,0,0.4
			c0.2,1.7,1.7,2.9,3.4,2.9c1.7,0,3.2-1.3,3.4-3c0.1-0.4,0-0.6-0.5-0.6c-0.7,0.1-1.5,0.1-2.2,0.1c-0.4,0-0.6-0.1-0.5-0.6
			c0-0.3,0-0.7,0-1.1c-0.3,0.2-0.3,0.3-0.4,0.5c-0.3,0.4-0.6,0.9-1,1.2c-0.3,0.2-0.5,0.3-0.5-0.2C25.7,25.6,25.7,25.2,25.4,24.9z"/>
		<path class="st0" d="M67.5,29.9c-0.3,0.8-0.9,1.2-1.8,1.3c-0.3,0-0.5,0-0.5-0.4c0-1.1-0.3-2.1-0.9-3.1c-0.9,2.3-2.4,3.6-4.8,3.5
			c-2.4-0.1-3.9-1.5-4.6-3.9c-0.5,0.3-0.7,0.8-0.9,1.3c-0.3,0.6-0.4,1.3-0.3,2.1c0,0.4-0.1,0.5-0.5,0.4c-0.8-0.2-1.4-0.9-1.4-1.8
			c-0.1-1.4,0.9-2.6,2.4-3c0.5-0.1,0.7-0.3,0.8-0.8c0.1-0.9,0.3-1.8,0.8-2.6c0.9-1.5,2.8-2.1,4.7-1.7c2.1,0.5,3.5,2,3.9,4.2
			c0.1,0.5,0.2,0.7,0.7,0.9c1.1,0.3,1.7,1.2,2.2,2.2c0.1,0.2,0.1,0.4,0.2,0.5C67.5,29.3,67.5,29.6,67.5,29.9z M59.8,24.8
			c0,0-0.1,0-0.1,0c-0.1,0.2-0.3,0.4-0.4,0.6c-0.2,0.4-0.5,0.8-0.9,1.1c-0.4,0.3-0.5,0.2-0.6-0.2c0-0.3-0.1-0.5-0.2-0.7
			c-0.1-0.2-0.2-0.3-0.4,0c-0.2,0.3-0.4,0.7-0.7,0.9c-0.4,0.2-0.4,0.5-0.3,0.9c0.3,1.7,1.8,2.8,3.6,2.7c1.6-0.1,3-1.4,3.2-3.1
			c0-0.4,0-0.5-0.5-0.5c-0.8,0-1.6,0.1-2.4,0.1c-0.4,0-0.5-0.2-0.5-0.5C59.8,25.5,59.8,25.2,59.8,24.8z"/>
		<path class="st0" d="M48.5,25.4c-0.1,1,0,1.7-0.3,2.5c-0.6,1.9-2.3,3-4.3,2.8c-1.9-0.2-3.4-1.6-3.6-3.6c-0.1-0.7-0.1-1.3-0.3-2
			c-0.1-0.5,0.1-1,0.6-1.3c0.8-0.6,1.6-1.2,2.6-1.2c1.5-0.1,2.9,0,4.3,0.4c0.6,0.2,1,0.7,1,1.3C48.6,24.8,48.5,25.2,48.5,25.4z
			 M43.9,25.8c-0.7,0.4-1.3,0.6-2,0.4c-0.4-0.1-0.4,0.2-0.5,0.5c0,1.6,1.4,3.1,3,3.1c1.7,0,3.1-1.4,3-3.1c0-0.3-0.1-0.4-0.4-0.5
			c-0.9-0.1-1.9-0.2-2.8,0.1C44,26.4,43.6,26.5,43.9,25.8z"/>
	</g>
</g>
</svg>
