<!-- Generator: Adobe Illustrator 21.1.0, SVG Export Plug-In  -->
<svg version="1.1"
	 xmlns="http://www.w3.org/2000/svg" xmlns:xlink="http://www.w3.org/1999/xlink" xmlns:a="http://ns.adobe.com/AdobeSVGViewerExtensions/3.0/"
	 x="0px" y="0px" width="47.7px" height="48px" viewBox="0 0 47.7 48" style="overflow:scroll;enable-background:new 0 0 47.7 48;"
	 xml:space="preserve">
<style type="text/css">
	.st0{fill:#B3B3B3;}
</style>
<defs>
</defs>
<g id="_x38_JKipF.tif_1_">
	<g>
		<path class="st0" d="M41.4,29.8c0.4,0.6,1,0.9,1.4,1.3c1.4,1.5,2.3,3.2,2.3,5.3c0,1.9,0,3.8,0,5.8c0,0.6-0.2,0.8-0.8,0.8
			c-0.6,0-1.1,0-1.7,0c-0.5,0-0.8,0.3-0.8,0.8c0,0.5,0,1.1,0,1.6c-0.1,1.5-1.4,2.7-2.9,2.6c-1.5,0-2.8-1.2-2.8-2.7
			c0-0.5,0-1.1,0-1.6c0-0.6-0.2-0.8-0.8-0.8c-0.1,0-0.2,0-0.3,0c-6.6,0-13.3,0-19.9,0c-1.1,0-1,0-1.1,1.1c-0.1,0.6,0.1,1.2-0.1,1.8
			c-0.4,1.5-1.8,2.4-3.4,2.2C9,47.8,7.9,46.4,8,44.9c0.1-2,0.1-2-1.8-2c-0.2,0-0.5,0-0.7,0c-0.5,0-0.6-0.2-0.6-0.6
			c0-2.3-0.2-4.6,0.1-6.9c0.2-1.8,1.2-3.3,2.5-4.5c0.2-0.2,0.5-0.3,0.5-0.6c-0.1-0.3-0.4-0.3-0.7-0.3c-1.8-0.5-3.3-2.5-3-4
			c0.1-0.5-0.2-0.9-0.6-1.2c-2.7-1.7-3.9-4.2-3.5-7.3c0.4-3.1,2.4-5.1,5.3-6c1.7-0.6,3.4-0.5,5.1,0.1c0.4,0.1,0.7,0.1,0.9-0.2
			c2-2.4,6.4-2.1,8.2,0.4c0.4,0.6,0.9,0.7,1.6,0.6c2.8-0.2,5.1,1.8,5,4.4c0,0.5,0.1,0.8,0.7,0.9c0.6,0,1.1,0.2,1.4-0.6
			c0.4-1.4,1.2-2.6,2.4-3.5c3.3-2.7,8.2-2,10.8,1.4c0.4,0.5,0.7,0.7,1.4,0.5c1.3-0.5,2.7,0,3.5,1.1c0.7,1,0.7,2.3-0.2,3.5
			c-0.3,0.4-0.3,0.6,0,0.9c1.6,1.6,2,4,1.1,5.9c-0.9,1.9-3.1,3.1-5.3,2.9C41.8,29.7,41.6,29.6,41.4,29.8z M25,28.6
			C25,28.6,25,28.6,25,28.6c3.6,0,7.1,0,10.7,0c0.9,0,0.9-0.1,0.6-0.9c-0.6-1.8-1.3-3.5-1.9-5.3c-0.4-1.1-0.8-1.5-2-1.5
			c-5,0-9.9,0-14.9,0c-0.9,0-1.6,0.4-1.9,1.4c-0.5,1.7-1.2,3.4-1.8,5.1c-0.4,1.1-0.4,1.2,0.8,1.2C18.1,28.6,21.5,28.6,25,28.6z
			 M1.6,18.7c0.1,1.8,0.8,3.4,2.6,4.5c0.4,0.3,0.6,0.2,0.9-0.2c1.4-1.7,4.2-2.2,6.1-0.9c0.4,0.3,0.6,0.2,0.8-0.2
			c0.3-0.6,0.5-1.3,0.8-1.9c0.2-0.4,0-0.6-0.3-0.7c-2-1.3-2.9-3.1-2.4-5.5c0.1-0.5,0-0.8-0.5-0.9C5.7,11.5,1.6,14.4,1.6,18.7z
			 M34.8,14c0.7,0,1.2,0.2,1.2,0.8c0,0.5-0.4,0.8-0.9,0.8c-1.1-0.1-1.8,0.6-2.5,1.3c-0.1,0.1-0.3,0.3-0.2,0.5
			c0.1,0.2,0.3,0.2,0.5,0.2c0.6,0,1.2,0.2,1.7,0.4c1.3,0.5,2.4,1.3,2.9,2.8c0.3,0.8,0.4,0.8,1,0.2c0.5-0.5,1-0.9,1.7-1.1
			c0.8-0.3,0.9-0.8,0.8-1.5c-0.3-2.5-2.2-4.5-5-4.9c-2.9-0.4-5.2,1.5-6,3.3c-0.1,0.3-0.4,0.6,0,0.8c0.4,0.2,0.5-0.2,0.6-0.5
			c0.1-0.2,0.2-0.4,0.3-0.6C31.9,14.9,33.3,14.2,34.8,14z M15.4,11.2c-2,0-3.5,1.3-3.9,3c-0.3,1.5,0.6,3.1,2.1,3.9
			c0.4,0.2,3.9-0.3,4.2-0.6c0,0,0,0,0-0.1c1.1-1.1,1.5-2.9,0.8-4.2C18,11.9,16.8,11.2,15.4,11.2z M42.4,20.9c-1.4,0-2.7,0.8-3.4,2
			c-0.2,0.4-0.4,0.9-0.2,1.4c0.1,0.2,0.1,0.5,0.3,0.5c0.3,0,0.2-0.3,0.3-0.5c0.5-1.6,1.9-2.7,3.3-2.6c0.4,0,0.8,0.1,0.8,0.6
			c0,0.4-0.3,0.6-0.7,0.6c-1.3,0.2-2,0.8-2.2,2.1c-0.1,0.5-0.3,0.7-0.7,0.7c-0.2,0-0.6-0.1-0.5,0.3c0.2,0.6,0.3,1.1,0.9,1.5
			c1.2,0.8,3.1,0.8,4.1,0c1.4-1.1,1.9-2.5,1.4-4.1C45.5,22,43.9,20.9,42.4,20.9z M8.7,22.9c-1.4-0.2-3,1.2-3.1,3
			c0,1.2,1.5,2.6,3,2.6c0.6,0,1-0.2,1.2-0.8c0.3-0.9,0.7-1.7,1-2.6C11.2,24,11,23.6,9.9,23C9.5,22.9,9.1,22.9,8.7,22.9z M39,33.4
			c-1.3,0-2.4,1-2.4,2.4c0,1,1.2,2.2,2.3,2.2c1.3,0,2.4-1.1,2.4-2.4C41.3,34.4,40.3,33.4,39,33.4z M11,33.5c-1.3,0-2.4,1-2.4,2.2
			c0,1.2,1.1,2.2,2.3,2.3c1.3,0,2.4-1.1,2.4-2.3C13.3,34.5,12.3,33.5,11,33.5z M22.2,17.6C22.2,17.6,22.2,17.6,22.2,17.6
			c0.5,0,1,0,1.5,0c0.4,0,0.7-0.2,0.8-0.7c0.2-1.6-1.6-3.4-3.2-3.1c-0.2,0-0.3,0.1-0.5,0.1c-0.1,0.1-0.2,0.2-0.2,0.3
			c0,0.2,0.2,0.3,0.3,0.3c0.2,0,0.4,0,0.6-0.1c0.3,0,0.6,0,0.7,0.3c0.1,0.4-0.2,0.6-0.5,0.6c-1,0.1-1.3,0.7-1.6,1.5
			c-0.2,0.5,0,0.6,0.4,0.7C21.1,17.6,21.7,17.6,22.2,17.6z M43.3,16.4c-0.7,0-0.9,0.3-0.7,1.2c0,0.2,0.1,0.5,0.1,0.7
			c0,0.6,0,1,0.7,1.1c0.7,0.1,1.3,0.3,1.8-0.5c0.3-0.5,0.5-1,0.1-1.6C44.9,16.7,44.3,16.4,43.3,16.4z"/>
		<path class="st0" d="M30,1.8c0.9-0.1,1.7,0.2,2.5,0.8c0.4,0.3,0.8,0.3,1.3,0.1c1.2-0.6,2.7-0.3,3.7,0.6c0.9,0.9,1.1,2.2,0.6,3.3
			c-0.6,1.3-1.9,2-3.3,1.7c-0.5-0.1-0.7,0.1-0.9,0.4c-1.9,2.4-4.9,2.6-7.1,0.7c-2.4-2.1-1.5-6.2,1.6-7.3C28.8,1.9,29.4,1.7,30,1.8z
			 M29.9,9.1c1.6,0,3-1.4,3-2.8c0-1.5-1.5-2.9-3.1-2.9c-1.6,0-3,1.4-2.9,3C26.9,7.8,28.4,9.1,29.9,9.1z M36.7,5.3
			c0-1-1.1-1.8-2.1-1.5C34.2,4,34,4.2,34.2,4.5c0.2,0.6,0.3,1.2,0.3,1.8c0,0.4,0.2,0.6,0.6,0.6C35.9,6.9,36.7,6.1,36.7,5.3z"/>
		<path class="st0" d="M20.3,5.9c-1.7-0.1-3.1-1.5-3-3.1C17.4,1.2,18.8,0,20.6,0c1.5,0,2.9,1.4,2.9,2.9C23.5,4.6,22.1,6,20.3,5.9z
			 M20.5,4.6c0.9,0,1.7-0.8,1.6-1.7c0-0.9-0.8-1.6-1.7-1.6c-0.9,0-1.7,0.9-1.7,1.7C18.7,3.8,19.6,4.6,20.5,4.6z"/>
		<path class="st0" d="M2.5,18.1c0.1-2.4,2.6-4.8,5-4.7c0.5,0,0.9,0.2,0.9,0.7c0.1,0.5-0.3,0.8-0.8,0.8c-2.3,0.4-3.2,1.2-3.6,3.5
			c-0.1,0.5-0.3,0.7-0.8,0.7C2.7,19.1,2.5,18.7,2.5,18.1z"/>
		<path class="st0" d="M12.2,15.1c0-1.9,2-3.4,3.8-3.1c0.2,0,0.4,0.1,0.5,0.4c0,0.2,0,0.4-0.2,0.6c-0.2,0.1-0.3,0.3-0.6,0.3
			c-1.2,0.1-1.9,0.8-2.1,2c-0.1,0.5-0.2,0.9-0.8,0.8C12.2,16,12.2,15.5,12.2,15.1z"/>
		<path class="st0" d="M9,23.4c0.2,0,0.6-0.1,0.7,0.4c0.1,0.4-0.3,0.5-0.6,0.6c-0.9,0.1-1.5,0.6-1.7,1.6c-0.1,0.3-0.1,0.8-0.6,0.7
			c-0.5-0.1-0.4-0.5-0.4-0.9C6.4,24.5,7.6,23.4,9,23.4z"/>
	</g>
</g>
</svg>
