<!-- Generator: Adobe Illustrator 21.1.0, SVG Export Plug-In  -->
<svg version="1.1"
	 xmlns="http://www.w3.org/2000/svg" xmlns:xlink="http://www.w3.org/1999/xlink" xmlns:a="http://ns.adobe.com/AdobeSVGViewerExtensions/3.0/"
	 x="0px" y="0px" width="31.7px" height="24px" viewBox="0 0 31.7 24" style="overflow:scroll;enable-background:new 0 0 31.7 24;"
	 xml:space="preserve">
<style type="text/css">
	.st0{fill:#AAA5A1;}
</style>
<defs>
</defs>
<g id="_x38_pV8pO.tif_1_">
	<g>
		<g>
			<path class="st0" d="M4.1,19.5c0-0.3,0.1-0.4,0.3-0.6C6,17.4,7.6,16,9.1,14.6c0.5-0.5,1-1,1.6-1.4c0.3-0.2,0.2-0.3,0-0.5
				c-2.1-2.3-4.3-4.6-6.4-7C4.1,5.4,4,5.2,4.1,4.9c0.1-0.2,0.3-0.4,0.6-0.4c0.3,0,0.4,0.1,0.6,0.3c1.4,1.5,2.7,3,4.1,4.5
				c1.3,1.4,2.5,2.8,3.8,4.1c1.5,1.7,3.8,1.7,5.3,0c1.9-2.1,3.9-4.3,5.8-6.4c0.7-0.7,1.3-1.5,2-2.2c0.2-0.2,0.5-0.4,0.8-0.3
				c0.5,0.2,0.6,0.7,0.2,1.1c-0.6,0.7-1.2,1.3-1.8,2c-1.6,1.7-3.1,3.4-4.7,5.1c-0.2,0.2-0.1,0.3,0,0.4c2.1,1.9,4.2,3.8,6.3,5.7
				c0.1,0.1,0.1,0.1,0.2,0.2c0.3,0.3,0.3,0.6,0,0.9c-0.2,0.3-0.6,0.3-0.9,0c-0.4-0.3-0.8-0.7-1.2-1.1c-1.8-1.6-3.5-3.2-5.3-4.8
				c-0.2-0.2-0.3-0.1-0.4,0c-0.6,0.8-1.4,1.4-2.4,1.7c-1.9,0.5-3.5,0-4.9-1.4c-0.5-0.5-0.4-0.5-0.9,0c-2,1.9-4.1,3.7-6.1,5.6
				C5,20.1,4.8,20.2,4.5,20C4.2,19.9,4.1,19.7,4.1,19.5z"/>
		</g>
		<g>
			<path class="st0" d="M28.1,24H3.6c-2,0-3.6-1.6-3.6-3.6V3.6C0,1.6,1.6,0,3.6,0h24.5c2,0,3.6,1.6,3.6,3.6v16.8
				C31.7,22.4,30.1,24,28.1,24z M3.6,2C2.7,2,2,2.7,2,3.6v16.8C2,21.3,2.7,22,3.6,22h24.5c0.9,0,1.6-0.7,1.6-1.6V3.6
				C29.7,2.7,29,2,28.1,2H3.6z"/>
		</g>
	</g>
</g>
</svg>
