<!-- Generator: Adobe Illustrator 21.1.0, SVG Export Plug-In  -->
<svg version="1.1"
	 xmlns="http://www.w3.org/2000/svg" xmlns:xlink="http://www.w3.org/1999/xlink" xmlns:a="http://ns.adobe.com/AdobeSVGViewerExtensions/3.0/"
	 x="0px" y="0px" width="32.1px" height="32.1px" viewBox="0 0 32.1 32.1"
	 style="overflow:scroll;enable-background:new 0 0 32.1 32.1;" xml:space="preserve">
<style type="text/css">
	.st0{fill:#AAA5A1;}
</style>
<defs>
</defs>
<g id="AMd6BR.tif_1_">
	<g>
		<g>
			<path class="st0" d="M16,32.1c-8.8,0-16-7.2-16-16S7.2,0,16,0s16,7.2,16,16S24.9,32.1,16,32.1z M16,2C8.3,2,2,8.3,2,16
				s6.3,14,14,14s14-6.3,14-14S23.8,2,16,2z"/>
		</g>
		<g>
			<path class="st0" d="M20.4,24.6c-1.5-0.1-2.9-0.7-4.2-1.6c-2.9-2-5.4-4.4-7.3-7.4c-0.7-1.1-1.2-2.2-1.4-3.5
				c-0.4-2.2,0.9-4.1,3-4.7c0.8-0.2,1.4,0,1.7,0.8c0.4,0.9,0.7,1.8,1,2.7c0.3,0.8,0.1,1.3-0.7,1.7c-1.1,0.5-1.3,1.1-0.7,2.1
				c1.2,2.3,2.9,4.1,5.2,5.2c1.1,0.6,1.6,0.4,2.2-0.7c0.4-0.9,1-1,1.8-0.7c0.8,0.3,1.6,0.6,2.4,0.9c1.1,0.5,1.3,0.9,0.9,2.1
				C23.9,23.5,22.4,24.6,20.4,24.6z"/>
		</g>
	</g>
</g>
</svg>
