<!-- Generator: Adobe Illustrator 21.1.0, SVG Export Plug-In  -->
<svg version="1.1"
	 xmlns="http://www.w3.org/2000/svg" xmlns:xlink="http://www.w3.org/1999/xlink" xmlns:a="http://ns.adobe.com/AdobeSVGViewerExtensions/3.0/"
	 x="0px" y="0px" width="23px" height="23px" viewBox="0 0 23 23" style="overflow:scroll;enable-background:new 0 0 23 23;"
	 xml:space="preserve">
<style type="text/css">
	.st0{fill:#525252;}
</style>
<defs>
</defs>
<g>
	<path class="st0" d="M22.1,19.4c-1.1-0.9-2-2-3-3c-0.2-0.2-0.3-0.3-0.6,0c-0.7,0.8-1.5,1.5-2.2,2.2c-0.2,0.2-0.2,0.3,0,0.5
		c1,1,1.9,1.9,2.9,2.9c0.4,0.4,0.8,0.8,1.4,1c0.3,0,0.6,0,0.8,0C23.3,22.4,23.4,20.5,22.1,19.4z"/>
	<path class="st0" d="M19.6,9.8c0-5.4-4.4-9.8-9.8-9.8C4.5,0,0,4.4,0,9.7c0,5.5,4.3,9.9,9.8,9.9C15.2,19.6,19.6,15.2,19.6,9.8z
		 M9.8,17.6C5.5,17.5,2,14.1,2,9.8C2,5.5,5.5,2,9.8,2c4.3,0,7.8,3.5,7.8,7.8C17.6,14.1,14,17.6,9.8,17.6z"/>
	<polygon class="st0" points="10.6,5 8.5,5 8.5,9 4.6,9 4.6,11 8.5,11 8.5,15 10.6,15 10.6,11 14.5,11 14.5,9 10.6,9 	"/>
</g>
</svg>
