<!-- Generator: Adobe Illustrator 21.1.0, SVG Export Plug-In  -->
<svg version="1.1"
	 xmlns="http://www.w3.org/2000/svg" xmlns:xlink="http://www.w3.org/1999/xlink" xmlns:a="http://ns.adobe.com/AdobeSVGViewerExtensions/3.0/"
	 x="0px" y="0px" width="23px" height="23px" viewBox="0 0 23 23" style="overflow:scroll;enable-background:new 0 0 23 23;"
	 xml:space="preserve">
<style type="text/css">
	.st0{fill:#525252;}
</style>
<defs>
</defs>
<g>
	<path class="st0" d="M22.1,19.4c-1.1-0.9-2-2-3-3c-0.2-0.2-0.3-0.3-0.6,0c-0.7,0.8-1.5,1.5-2.2,2.2c-0.2,0.2-0.2,0.3,0,0.5
		c1,1,1.9,1.9,2.9,2.9c0.4,0.4,0.8,0.8,1.4,1c0.3,0,0.6,0,0.8,0C23.3,22.4,23.4,20.5,22.1,19.4z"/>
	<path class="st0" d="M19.2,9.6C19.3,4.3,15,0,9.6,0C4.4,0,0,4.3,0,9.5c0,5.4,4.2,9.7,9.6,9.7C14.9,19.3,19.2,15,19.2,9.6z
		 M9.6,17.2C5.4,17.2,2,13.8,2,9.6C2,5.4,5.4,2,9.6,2c4.2,0,7.6,3.4,7.6,7.6C17.3,13.8,13.8,17.3,9.6,17.2z"/>
	<rect x="4.6" y="9" class="st0" width="9.9" height="2.1"/>
</g>
</svg>
