<?xml version="1.0" encoding="utf-8"?><svg xmlns="http://www.w3.org/2000/svg" xmlns:xlink="http://www.w3.org/1999/xlink"><symbol viewBox="0 0 162 54" id="s2-svg-1" xmlns="http://www.w3.org/2000/svg"><path d="M34.4 33.7h3.8V54h-3.8zm84.5-10.5h3.8V54h-3.8zm-50.5-6.7h3.8V54h-3.8z"/><path d="M130.2 27.9L96.3 0 27 36.3l2 3.9 5.5-2.9V54h88V27.2l4.8 4 2.9-3.3zM68.9 50.5H37.1V36l31.8-16.7v31.2zm51.2 0H71.4V18L95.7 5.2l24.4 20v25.3z"/><path d="M63.4 31.8l-18 9.5v3.9h18zM85 30.3h8.1v15H85zm10.1 0h8.1v15h-8.1zM162 47.4v-1.3h-2.3v-2.3l-2.4-4-2.4 4v2.3h-2.5v-2.3l-2.4-4-2.4 4v2.3h-2.5v-2.3l-2.4-4-2.4 4v2.3h-2.5v-2.3l-2.4-4-2.4 4v2.3h-1.9v1.3h1.9v3.1h-1.9v1.3h1.9v2h4.9v-2h2.5v2h4.9v-2h2.5v2h4.9v-2h2.5v2h4.9v-2h2.3v-1.3h-2.3v-3.1h1.9zm-22 3.1h-2.5v-3.1h2.5v3.1zm7.4 0h-2.5v-3.1h2.5v3.1zm7.5 0h-2.5v-3.1h2.5v3.1zM21.7 43.8l-2.4-4-2.4 4v2.3h-2.5v-2.3l-2.4-4-2.4 4v2.3H6.8v-2.3l-2.4-4-2.4 4v2.3H0v1.3h2v3.1H0v1.3h2v2h4.9v-2h2.5v2h4.9v-2h2.5v2h4.9v-2H24v-1.3h-2.3v-3.1H24v-1.3h-2.3v-2.3zM9.4 50.5H6.8v-3.1h2.5v3.1zm7.4 0h-2.5v-3.1h2.5v3.1z"/></symbol><symbol viewBox="0 0 65.1 62.3" overflow="scroll" id="s2-svg-2" xmlns="http://www.w3.org/2000/svg"><path d="M53.2 25.8c6 0 11.1 4.5 11.8 10.4.2 1.9-.1 3.6-.8 5.3-.9 2.2-2.2 4.3-3.5 6.3-2.1 3.2-4.5 6.2-7 9.1-.2.3-.4.6-.7.1-3.8-4.5-7.4-9-10-14.3-.6-1.3-1.2-2.6-1.4-4.1-.4-3.3.6-6.2 2.8-8.8 2.1-2.5 5.4-3.9 8.8-4zm.1 7.6c-2.2 0-4.2 1.9-4.2 4.2 0 2.2 1.9 4.2 4.2 4.2 2.3 0 4.2-2 4.2-4.2-.1-2.3-2-4.2-4.2-4.2zM12.3 0c5.9 0 11.1 5.1 11.3 11.5 0 1.7-.5 3.3-1.2 4.8-1.6 3.5-3.8 6.7-6.1 9.7-1.3 1.7-2.7 3.4-4.1 5.1-.3.3-.5.5-.8 0-3.7-4.4-7.2-8.8-9.8-13.9C.9 15.9.3 14.5.1 13-.4 8.3 1.5 4.6 5.3 1.9 7.2.6 9.4 0 12.3 0zm-.5 7.6c-2.2 0-4.2 1.9-4.2 4.2 0 2.2 2 4.2 4.2 4.2s4.1-1.9 4.1-4.1c.1-2.3-1.8-4.3-4.1-4.3zm23.9 54.3c-1.2-.1-2.3-.1-3.5-.2-1-.1-1.5-.8-1.5-1.6.1-.9.8-1.5 1.8-1.4 1.3.1 2.5.2 3.8.3.8.1 1.5.7 1.5 1.5s-.7 1.5-1.5 1.5c-.2-.1-.4-.1-.6-.1zm-13.2-4.3c1.4.2 2.8.3 4.1.6.9.1 1.3.9 1.2 1.8-.1.7-.8 1.3-1.6 1.2-1.4-.2-2.7-.3-4.1-.5-.9-.1-1.3-.9-1.2-1.7.1-.9.8-1.4 1.6-1.4zm-8.2-8.9c-.9 0-1.5-.5-1.7-1.2-.2-.7.2-1.5.9-1.7 1.4-.5 2.8-.9 4.3-1.1.8-.1 1.4.4 1.6 1.1.2.7-.1 1.5-.8 1.7-1.5.5-3 .9-4.3 1.2zm9.5-2.3c-.8 0-1.4-.5-1.5-1.2-.1-.8.2-1.5 1-1.7 1.3-.4 2.7-.8 4-1.1.8-.2 1.5.2 1.7.9.3.7 0 1.5-.7 1.9-.4.2-4 1.2-4.5 1.2zM33 40c0 .7-.5 1.4-1.2 1.5-.7.2-1.6-.2-1.7-1-.2-1.1-.9-1.6-1.7-2.2-.8-.5-1-1.3-.6-2.1.4-.7 1.3-1 2.1-.6 1.7 1 3.1 2.9 3.1 4.4zM12.8 55.4c.1 0 .3 0 .5.1 1.1.4 2.2.7 3.4 1 1 .3 1.5 1 1.3 2-.2.8-1 1.2-2 1-1.3-.3-2.5-.6-3.7-1.1-.8-.3-1.2-1-1-1.8.1-.7.7-1.2 1.5-1.2zm7.3-21.8c1 .1 2.1.2 3.3.3 1 .1 1.6.8 1.4 1.8-.1 1-.8 1.4-1.8 1.3-1.1-.1-2.3-.2-3.4-.3-1.1-.1-1.7-.6-1.7-1.6 0-.9.7-1.5 1.8-1.5.1.1.1 0 .4 0zm24.1 28.6h-1.9c-1 0-1.6-.7-1.5-1.6 0-.9.6-1.5 1.5-1.5 1.3 0 2.7 0 4 .1.9 0 1.5.7 1.5 1.6 0 .9-.6 1.5-1.5 1.5-.7 0-1.4-.1-2.1-.1zM8.7 48.4c.7 0 1.2.3 1.4.8.3.5.3 1.1-.1 1.6-.7.7-.8 1.5-.6 2.5.2.8-.3 1.5-1 1.7-.7.2-1.5-.1-1.8-.9-.8-1.7-.2-4.2 1.3-5.3.2-.3.6-.4.8-.4zm44.6 13.9h-1c-.8-.1-1.4-.7-1.5-1.5 0-.8.6-1.4 1.4-1.5.8-.1 1.6-.1 2.4 0 .8.1 1.4.7 1.4 1.5s-.6 1.4-1.4 1.5h-1.3zm-41-25.8h-1.2c-.8-.1-1.4-.7-1.4-1.5 0-.7.6-1.4 1.3-1.5.8 0 1.7-.1 2.5 0 .8 0 1.3.8 1.3 1.6s-.6 1.4-1.4 1.4h-1.1z"/></symbol><symbol viewBox="0 0 130.1 57.9" overflow="scroll" id="s2-svg-3" xmlns="http://www.w3.org/2000/svg"><path d="M65 40l-7.8-12.4 4.7-.3-8.4-13.5 3.4-.3L49.3 0l-7.6 13.5 3.4.3-8.4 13.5 4.6.3L33.5 40l12.5.9v7.8l6.6-.7v-7.1zm55 7.5l-3.7-5.8 2.2-.2-4-6.3 1.6-.2-3.6-6.3-3.6 6.3 1.7.2-4 6.3 2.2.2-3.7 5.8 5.9.4v2.5l3.1 1v-3.5zm-95.3-1.3l-5.6-8.9 3.4-.3-6.1-9.6 2.5-.2-5.5-9.7L8 27.2l2.4.2-6 9.6 3.3.3-5.6 8.9 9 .6V53l4.7-.9v-5.3zm71.4-3.7l-5.7-8.9 3.4-.3-6-9.7 2.4-.2-5.4-9.6-5.5 9.6 2.4.2-6 9.7 3.4.3-5.7 8.9 9 .6-.6 5.4 5.3.8v-6.2z"/><path d="M129.5 57.9c-.3-.1-29.3-8.6-64.5-8.6S.8 57.8.5 57.9L0 56c.3-.1 29.5-8.7 65-8.7s64.7 8.6 65 8.7l-.5 1.9z"/></symbol><symbol viewBox="0 0 87 67.9" overflow="scroll" id="s2-svg-4" xmlns="http://www.w3.org/2000/svg"><path d="M78.9 46c-1.4 2.1-3.6 3.2-6.1 3.9-3.7 1.1-7.3 2.1-11 3.1-1.6.5-3.2 1.1-4.5 2.1-2.2 1.7-2.2 3.4 0 5.1 2.4 1.8 5.3 2.9 8.2 3.9 3.7 1.3 7.4 2.5 11.1 3.8-4.1 0-8.2-.6-12.3-1.1-6.5-.9-13-1.9-19.2-3.9-2.4-.8-4.8-1.7-6.8-3.2-3.1-2.4-2.9-5.2.7-7 1.7-.9 3.7-1.4 5.5-2.1.9-.3 1.8-.7 2.6-1.1.8-.4 1.7-.9 1.6-2-.1-.9-1.1-1.2-1.9-1.5-4.5-1.4-9.2-1.8-13.9-2.4-7.6-1-15.3-1.8-22.7-3.9-2.3-.6-4.5-1.4-6.5-2.6-1.2-.7-2.2-1.5-2.9-2.6-1.3-2-.9-3.5 1.4-4.6C5.4 28.3 9 27.6 12.5 27c8.3-1.5 16.7-2.4 25.1-3 .6 0 1.2-.2 1.9.2-1.9.6-3.7 1.2-5.4 1.8-1.7.6-3.3 1.3-4.6 2.4-1.9 1.6-1.7 2.9.7 4 3.5 1.5 7.3 2 11.1 2.7 9 1.5 18.2 2.4 27.1 4.4 3.9.9 7.8 1.8 10.5 4.7V46zM64 13.6c6.8 5.1 10.2 12 10.6 20.6.7-1.5.7-2.9.3-6-.6-3.9-1.5-7.8-2.9-11.6-1-2.6-1.9-5.2-4.4-7.3-2-1.6-3.1-4.3-4.6-6.5-.6-.8-.6-1.8.3-2.4.9-.6 2-.6 2.6.4l4.5 6.6c.1.2.3.5.3.7-1.2 3.7 1.9 6.2 2.7 9.4.6 2.7 1.5 5.4 2.5 8.6.6-5.4 2.2-10.1 3.3-14.8.6-2.8 1.4-5.4 2.5-7.9.4-1 1.1-1.9 2.2-1.4 1.2.6.9 1.7.4 2.6-1.2 2.1-2.1 4.4-3.7 6.4s-1.9 4.9-2.5 7.5c-1.1 5.1-1.3 10.2-1 15.4.1 1.6.1 2.2-2 2-2.7-.3-3.4-1-3.5-3.8-.3-6-2.5-11.5-6-16.4-.7-.8-1.1-1.5-1.6-2.1z"/><path d="M87 18c-6.1 3.3-7.8 8.7-7.4 15.1.1.7 0 1.5 0 2.2 0 .5-.1 1-.8 1-.6 0-1.3-.1-1.3-.9.1-4.4-.7-9 2.2-13 1.8-2.4 4.2-3.9 7.3-4.4z"/></symbol><symbol viewBox="0 0 45 41.4" overflow="scroll" id="s3-svg-1" xmlns="http://www.w3.org/2000/svg"><path d="M35.3 37.6c-.1.8-.2 1.7-.4 2.5-.1 1-.5 1.4-1.6 1.4H11.4c-1 0-1.4-.3-1.6-1.4-.1-.8-.2-1.7-.3-2.5.4 0 .7-.1 1.1-.1 1.3 0 1.3 0 1.2-1.3v-.1c-.3-2.1 0-1.7-2-1.7-.5 0-.7.2-.6.7.1.9.2 1.7.3 2.6-.5-.3-1-.2-1.5-.2-1 0-1.5-.4-1.6-1.4-.6-3.5-1.1-6.9-1.7-10.4-.4-2.3-.7-4.5-1.1-6.8-.1-.3-.1-.7-.1-1 0-.8.4-1.3 1.2-1.4h35.6c1.1.1 1.6.7 1.4 1.8-.5 2.7-1 5.5-1.5 8.2-.5 3.1-1.1 6.1-1.7 9.2-.3 1.5-.6 1.8-2.2 1.8-.4 0-.7-.1-1 .1.1-.8.2-1.7.3-2.6.1-.5-.1-.7-.6-.7-2-.1-2-.1-2.2 1.8 0 .2 0 .5-.1.7-.1.5.1.7.6.7.7 0 1.4-.1 2 .1zm-.2-9.3h.7c.6.1.9-.2.9-.8 0-.5.1-1.1.2-1.6.1-.6 0-.9-.7-.9h-.5c-1.8 0-1.8 0-1.9 1.8-.1 1.5-.1 1.5 1.3 1.5zm-.2 1.3H34c-.3 0-.5.2-.5.5-.1.7-.1 1.5-.2 2.2-.1.4.1.6.6.6 2.1.2 2.1.2 2.4-1.8 0-.1 0-.2.1-.3.2-1.2.2-1.2-.9-1.2h-.6zm.9-5.9c.4-.1 1.1.3 1.4-.3.2-.5.4-1.2.3-1.8-.1-.5-.3-.8-.8-1-1.6-.4-2.2 0-2.3 1.6v.1c-.2 1.4-.2 1.4 1.4 1.4zm-12-1.6c0-1.7.2-1.5-1.2-1.5-1.7 0-1.7 0-1.6 1.7 0 1.4 0 1.4 1.3 1.4 1.4 0 1.4.3 1.5-1.6zm4.4 0c.1-1.7.1-1.5-1.2-1.5-1.9 0-1.6-.2-1.7 1.8 0 1.3 0 1.3 1.2 1.3 2 0 1.6 0 1.7-1.6zm-4.5 4.6v-.8c.1-.6-.1-.9-.8-.9-2.3.1-1.9-.3-1.9 1.9v.4c-.1.8.3 1 1 1 2 0 1.6.1 1.7-1.6zm6.2-4.5c0 .2 0 .3-.1.5-.1.7.1 1 .9 1 1.8 0 1.8 0 2-1.8v-.2c.2-1.2.2-1.2-1.1-1.2-1.6 0-1.6 0-1.7 1.7zm-14.8 4.6c0-.4 0-.8-.1-1.2 0-.2-.1-.5-.3-.6-.7-.1-1.6-.3-2.2 0-.5.2-.1.9-.1 1.3v.6c.1 1.2.1 1.2 1.3 1.2 1.5.2 1.5.2 1.4-1.3zm4.3 0V26c0-.7-.2-.9-.9-.9-1.9.1-1.9-.4-1.7 1.9v.3c-.1.8.3 1.1 1.1 1 1.5 0 1.5 0 1.5-1.5zm-4.6-4.6c-.1-1.6-.1-1.6-1.3-1.6-1.8 0-1.8 0-1.6 1.7.1 1.4.1 1.4 1.5 1.4 1.5 0 1.5 0 1.4-1.5zm4.4-.1v-1c0-.3-.1-.5-.4-.5-.8 0-1.7-.3-2.3.2-.5.4 0 1.2 0 1.8v.1c-.1.9.3 1.1 1.2 1.1 1.6-.2 1.6.2 1.5-1.7zm4.4 9.2v-1.2c0-.3-.1-.4-.4-.5-1.8-.3-2.1-.1-2 1.7v.8c0 .5.2.7.8.7 1.5.2 1.5.2 1.6-1.5 0 .1 0 0 0 0zm5.9-4.3v.4c-.1.7.1 1 .9.9 1.9-.1 1.6.3 1.9-1.7 0-.3 0-.5.1-.8.1-.6-.1-.8-.8-.9-1.9.1-1.9.1-2.1 2.1zm-4.2-.4c0 1.6 0 1.6 1.5 1.7.8 0 1.1-.2 1.1-1 0-.4 0-.7.1-1.1 0-1.2 0-1.2-1.1-1.2-1.8 0-1.6-.2-1.6 1.6zM10.2 33c1.3 0 1.3 0 1.1-1.3 0-.4-.1-.9-.1-1.3 0-.6-.3-.7-.9-.7-1.9 0-1.9 0-1.6 1.9v.2C9 33 9 33 10.2 33zm9.3-1.6v-.9c0-.6-.2-.8-.8-.8-1.9 0-1.8-.3-1.7 1.8 0 .3.1.7.1 1 0 .4.2.5.6.6 1.7 0 1.8 0 1.8-1.7zM9.4 25H9c-.7-.1-1 .2-.9 1l.3 1.8c0 .3.1.5.4.5.7 0 1.4.2 2-.1.5-.3 0-1 0-1.5v-.3c-.2-1.4-.2-1.4-1.4-1.4zm15.8 6.3c-.1 1.7-.1 1.7 1.4 1.7.7 0 1-.3 1-1 0-.6 0-1.2.1-1.8 0-.4-.1-.5-.5-.6-1.9-.1-2-.1-2 1.7zm-9.8.2c0-.4 0-.8-.1-1.3 0-.3-.1-.5-.5-.6-1.9-.3-2.2 0-1.9 1.8 0 .3.1.7.1 1 0 .3.1.5.4.5 1.6.4 2.1 0 2-1.4zm15 1.5c1.2 0 1.2 0 1.3-1.2 0-.5.1-1 .1-1.5 0-.4-.1-.6-.6-.6-1.8-.2-1.8-.2-2 1.6 0 .2 0 .3-.1.5 0 1.1 0 1.2 1.3 1.2zM8.9 23.7H10c.3 0 .4-.1.4-.4l-.3-2.4c0-.1-.1-.2-.2-.2-.7 0-1.4-.3-1.9.3-.8.7-.4 1.7-.2 2.5.2.5.8 0 1.1.2zm21 13.8c1.1 0 1.1 0 1.2-1.1 0-.4.1-.9.2-1.3.1-.5-.1-.7-.6-.7-1.6-.1-1.6-.1-1.8 1.5 0 .2 0 .3-.1.5 0 1 0 1.1 1.1 1.1zM15.7 36c-.1-1.8-.1-1.8-1.8-1.7h-.1c-.4 0-.5.2-.5.5.1.8.2 1.5.3 2.3 0 .2.2.3.4.4 1.4.3 1.8 0 1.7-1.5 0 .1 0 0 0 0zm11.7-.2c.1-1.6.1-1.6-1.5-1.5-.5 0-.8.2-.8.7v1.9c0 .3.1.5.5.6 1.4.3 1.7 0 1.8-1.4-.1-.1-.1-.2 0-.3zm-7.8.2s-.1 0 0 0v-1.1c0-.3-.1-.5-.4-.5-1.6-.4-2 0-1.8 1.6 0 .4.1.7.1 1.1 0 .3.1.4.5.5 1.4.1 1.6-.1 1.6-1.6zm3.9-.1v-1c0-.3-.1-.5-.4-.5-1.4-.4-1.9 0-1.9 1.4V37c0 .3.1.5.4.6 1.3.3 1.8 0 1.8-1.3.1-.2.1-.3.1-.4zm-1-21.1H2.1c-.9 0-1.6-.3-1.9-1.2-.3-.8-.2-1.5.4-2.2.3-.4.8-.6 1.3-.6h17.3c.3 0 .4.1.4.5 0 .8.3 1.4.9 1.9.7.4 1.5.5 2.1 0 .9-.6 1.8-1.4 2.7-2.1.2-.2.5-.3.8-.3H43c.8 0 1.4.4 1.8 1.1.3.7.3 1.4-.2 2.1-.4.6-1.1.8-1.8.8H22.5z"/><path d="M20.8 10.7c0-.4.2-.7.5-1 1.9-1.5 3.9-3.1 5.8-4.6 2-1.6 4.1-3.2 6.1-4.8.6-.5 1.3-.5 1.7 0 .5.5.4 1.3-.2 1.8-2.5 2-5 3.9-7.5 5.9-1.5 1.2-2.9 2.3-4.4 3.5-.7.5-1.4.4-1.8-.2-.1-.2-.2-.4-.2-.6z"/></symbol><symbol viewBox="0 0 67.5 48" overflow="scroll" id="s3-svg-2" xmlns="http://www.w3.org/2000/svg"><path d="M0 25.2c.5-1 .8-2.1 1.1-3.1.9-2.5 1.7-5 2.6-7.5.3-.9.6-1.6.8-2.4.1-.4 0-.5-.3-.5H2.1c0-.3.2-.5.4-.6 1.4-1.5 1.9-3.3 1.9-5.3 0-1.1 0-2.1.5-3.1C5.6 1 6.9.3 8.7 0c1-.1 2-.1 3.1.1 1.7.3 2.6 1.2 2.9 3 .1.8.2 1.7.3 2.5.1 1.7.8 3.2 1.5 4.6.2.4.4.7.6 1.1.2.3.1.4-.2.4h-1.8c-.4 0-.6.1-.4.5l3 8.7c.5 1.3.9 2.6 1.4 3.9.1.2.2.4-.1.6-.2.1-.1.2 0 .3l.4.4c.4.3.7.7 1.1.9.5.2.7-.5 1.1-.6.3-.1.6-.3 1-.3.4-.1.5-.3.6-.7.1-.8.3-1.6.7-2.4.4-1 1.2-1.7 2.3-2 3.1-.9 6.1 1 6.4 4.2 0 .4.2.5.5.7 1.2.4 2 1.3 2.4 2.4.5 1.3-.2 2.3-1.6 2.5-.4 0-.5 0-.5-.4 0-1-.3-1.8-.7-2.7 0-.1-.1-.3-.2-.3s-.1.2-.2.3c-.7 2-2.6 3.2-4.6 3.2-2.1 0-3.9-1.4-4.5-3.4 0-.1 0-.3-.2-.3s-.2.2-.3.3c0 0 0 .1-.1.1-.6.9-.6 1 .3 1.7.6.5 1.1 1 1.7 1.5.3.3.6.4 1 .4h4.6c.3 0 .6.1.8.4 1.7 2 3.3 3.9 5 5.9.3.3.4.3.7 0 1.7-1.9 3.4-3.7 5.1-5.6.2-.2.4-.3.7-.3h4.7c.3 0 .5.1.6.3 1.4 1.7 2.8 3.4 4.1 5.1.3.4.5.4.8 0 1.4-1.7 2.8-3.4 4.2-5.2.2-.3.4-.4.8-.4h4.7c.3 0 .5.1.7.3 1.3 1.8 2.6 3.5 3.9 5.3.4.5.4.5-.2.7-1.3.3-1.3.3-2.1-.8-.7-.9-1.3-1.7-2-2.6-.1.9-.4 1.7.1 2.6.9 1.6 1.7 3.2 2.5 4.8.2.3.1.4-.3.4h-2.2c-.3 0-.5.1-.5.5v4.3c0 .3 0 .5.4.5.2 0 .2.2.2.3 0 .2-.1.2-.2.2h-1.8c-.3 0-.3-.3-.3-.5v-4.8c0-.3-.1-.5-.5-.5-.3 0-.5.1-.5.5v4.7c0 .5-.1.7-.6.6h-1.4c-.2 0-.3 0-.4-.2 0-.2 0-.4.3-.4s.2-.2.2-.4v-4.3c0-.4-.2-.4-.5-.4h-2.9c-.5 0-.5-.1-.3-.5.9-1.5 1.7-3 2.6-4.4.6-.8.6-1.6.3-2.6-.5.5-.9 1.1-1.4 1.6-.7.8-1.3 1.5-2 2.3-.1.2-.3.3-.5.2-.5-.2-1 0-1.4.1-.3.1-.5 0-.8-.2l-2.4-2.4c-.1-.1-.3-.3-.5-.4-.2.2-.1.4-.1.6v5.3c0 .5-.1.7-.6.6-.3-.1-.4.1-.4.4V47c0 .3 0 .5.3.5.2 0 .2.2.2.3 0 .2-.1.2-.2.2h-1.9c-.3 0-.2-.3-.2-.4v-4.8c0-.4-.1-.5-.5-.5s-.4.2-.4.5v4.6c0 .5-.1.7-.6.6h-1.4c-.2 0-.3 0-.3-.2s0-.3.2-.4c.3 0 .3-.2.3-.4v-4.3c0-.3-.1-.4-.4-.4-.4.1-.4-.2-.4-.5v-5.6c0-.2.1-.4-.1-.5-.2-.1-.3.2-.5.3-1 .9-2.1 1.8-3.1 2.7-.3.3-.6.4-1 .2-.6-.2-1.1-.3-1.7-.1-.3.1-.5-.1-.7-.3-1.3-1.4-2.6-2.8-3.9-4.3-.1-.1-.1-.1-.3-.2-.1 1.1-.3 2 .3 3 .9 1.4 1.6 3 2.3 4.5.2.3.1.4-.3.4h-2.2c-.4 0-.5.1-.5.5v4.2c0 .2 0 .5.3.5.2 0 .2.2.2.3 0 .2-.1.3-.3.3h-.1c-.6 0-1.4.2-1.8-.1-.4-.3-.1-1.1-.1-1.8v-3.4c0-.4-.1-.5-.5-.5s-.4.2-.4.5v4.7c0 .4-.1.6-.5.5H25c-.1 0-.3 0-.3-.2s0-.4.2-.4c.4 0 .3-.3.3-.5v-4.2c0-.3-.1-.5-.5-.5h-3c-.4 0-.5-.1-.2-.4.9-1.6 1.8-3.2 2.8-4.7.3-.5.4-1 .4-1.6.1-1.2-.4-2.1-1.3-2.9-.4-.3-.7-.7-1.1-1.1-.3-.2-.4-.6-.9-.4-.4.3-1.3-.3-1.4-1-.3-1.7-1.8-2.4-2.8-3.5-.1-.2-.3-.1-.4-.1-.4.2-.5 0-.6-.3-.9-2.4-1.7-4.8-2.6-7.2-.1-.3-.1-.6-.4-.9-.2.1-.1.3-.1.4-.1 1-.1 2.1-.1 3.1 0 .5 0 1 .2 1.4 1.3 3.9 2.5 7.9 3.8 11.8.1.4.1.6-.4.5h-3.2c-.4 0-.5.1-.5.5v10.4c0 .3 0 .5.4.5.3 0 .4.1.3.3v.6c0 .3-.1.4-.4.4h-2.3c-.4 0-.5-.1-.5-.5V35.4c0-.6-.4-.5-.7-.5-.4 0-.6 0-.6.5V47c0 .5-.1.6-.6.6H6.3c-.3 0-.5-.1-.4-.4v-.5c0-.2.1-.4.3-.3.3 0 .4-.1.4-.4V35.5c0-.4-.2-.4-.5-.4H1.7c-.6 0-.6 0-.4-.6 1.3-3.7 2.6-7.5 4.1-11.1.7-1.7.2-3.2.2-4.8h-.2l-1.2 3.3c-.5 1.3-1 2.7-1.5 4-.1.3-.2.4-.5.2-.7-.3-1.4-.6-2.2-.8v-.1zm8.1-14.5c-.2 1.2.7 1.8 1.2 2.7.1.2.2.2.3 0 .5-.9 1.4-1.6 1.2-2.9-.1-.4.1-.7.5-.9 1.7-.8 2.5-2.6 2-4.3-.1-.3-.1-.6-.5-.6-2-.1-4-.5-6.1-.2-.3 0-.5.1-.6.4-.5 1.4 0 3.4 1.3 4.3.5.3.9.8.7 1.5zm17.3 14.2c-.4.5-.6 1.1-1.2 1.4-.1.1-.1.3 0 .4.2 1.7 1.7 2.9 3.4 2.9s3.2-1.3 3.4-3c.1-.4 0-.6-.5-.6-.7.1-1.5.1-2.2.1-.4 0-.6-.1-.5-.6v-1.1c-.3.2-.3.3-.4.5-.3.4-.6.9-1 1.2-.3.2-.5.3-.5-.2-.2-.3-.2-.7-.5-1z"/><path d="M67.5 29.9c-.3.8-.9 1.2-1.8 1.3-.3 0-.5 0-.5-.4 0-1.1-.3-2.1-.9-3.1-.9 2.3-2.4 3.6-4.8 3.5-2.4-.1-3.9-1.5-4.6-3.9-.5.3-.7.8-.9 1.3-.3.6-.4 1.3-.3 2.1 0 .4-.1.5-.5.4-.8-.2-1.4-.9-1.4-1.8-.1-1.4.9-2.6 2.4-3 .5-.1.7-.3.8-.8.1-.9.3-1.8.8-2.6.9-1.5 2.8-2.1 4.7-1.7 2.1.5 3.5 2 3.9 4.2.1.5.2.7.7.9 1.1.3 1.7 1.2 2.2 2.2.1.2.1.4.2.5v.9zm-7.7-5.1h-.1c-.1.2-.3.4-.4.6-.2.4-.5.8-.9 1.1-.4.3-.5.2-.6-.2 0-.3-.1-.5-.2-.7-.1-.2-.2-.3-.4 0s-.4.7-.7.9c-.4.2-.4.5-.3.9.3 1.7 1.8 2.8 3.6 2.7 1.6-.1 3-1.4 3.2-3.1 0-.4 0-.5-.5-.5-.8 0-1.6.1-2.4.1-.4 0-.5-.2-.5-.5.2-.6.2-.9.2-1.3zm-11.3.6c-.1 1 0 1.7-.3 2.5-.6 1.9-2.3 3-4.3 2.8-1.9-.2-3.4-1.6-3.6-3.6-.1-.7-.1-1.3-.3-2-.1-.5.1-1 .6-1.3.8-.6 1.6-1.2 2.6-1.2 1.5-.1 2.9 0 4.3.4.6.2 1 .7 1 1.3.1.5 0 .9 0 1.1zm-4.6.4c-.7.4-1.3.6-2 .4-.4-.1-.4.2-.5.5 0 1.6 1.4 3.1 3 3.1 1.7 0 3.1-1.4 3-3.1 0-.3-.1-.4-.4-.5-.9-.1-1.9-.2-2.8.1-.2.1-.6.2-.3-.5z"/></symbol><symbol viewBox="0 0 45.9 48" overflow="scroll" id="s3-svg-3" xmlns="http://www.w3.org/2000/svg"><path d="M6.2 48c-.3-.2-.7-.3-1-.6-.4-.5-.5-1-.4-1.5 0-.3-.1-.4-.4-.4-.7 0-1.5.1-2.2-.2-2.3-.8-3.1-3.9-1.5-5.7.8-.9 1.8-1.3 3-1.3h15.7c.4 0 .5-.1.6-.5.3-1.9.6-3.8 1-5.7 0-.2 0-.3-.1-.5-.8-1.4-1.6-2.7-2.4-4.1-.1-.2-.2-.3-.5-.2-.4.1-.7.1-1.1 0-.2 0-.3 0-.5.2-1.3 1.9-2.7 3.7-4 5.6-.6.9-1.5 1.2-2.5.6-1.8-.9-3.6-1.9-5.3-2.9-.7-.4-1.3-.7-2-1-.7-.4-1.1-.9-1.1-1.8.1-.8.5-1.3 1.2-1.5.5-.2.9-.1 1.4.1 1.8 1 3.7 2 5.5 3 .1.1.3.1.4.2.2.1.3.1.4-.1 1-1.4 2-2.9 3-4.3.3-.3.3-.6.1-1-.2-.5-.3-1.1-.3-1.7v-4.4c0-.3-.1-.4-.4-.2-.4.2-.7.4-1.1.6-.2.1-.3.3-.2.5.3 1 .5 2.1.8 3.1.2.8-.1 1.6-.8 2-.7.4-1.6.2-2.2-.4-.3-.3-.4-.7-.5-1.1-.4-1.4-.7-2.9-1.1-4.3-.2-1 .1-1.7 1-2.2 1.4-.8 2.9-1.6 4.3-2.4.2-.1.3-.3.4-.5.3-1.6 1.2-2.7 2.8-3.3 1.4-.5 3.2.1 4.1 1.3.6.8 1 1.7 1.1 2.8 0 .2 0 .3.2.4l3.3 1.8c.2.1.4.1.6 0 .6-.4 1.2-.8 1.9-1.1.8-.5 1.9-.3 2.5.5.5.8.3 1.9-.5 2.5-1 .7-2 1.3-3.1 1.9-.6.4-1.3.4-1.9 0-.8-.5-1.6-.9-2.5-1.4-.1-.1-.2-.2-.3-.1-.1.1-.1.2-.1.3v3.7c0 .7-.1 1.3-.3 1.9-.1.3-.1.5.1.7 1 1.6 1.9 3.3 2.9 4.9.4.7.5 1.3.3 2.1-.3 1.8-.6 3.7-1 5.5-.1.3 0 .4.3.4h7.9c.3 0 .4-.1.4-.3.7-3.6 1.3-7.2 2-10.8.5-2.6.9-5.2 1.4-7.8.1-.4 0-.4-.4-.4h-1.9c-1-.1-1.7-.6-2.1-1.5-.4-.9-.3-1.8.3-2.7.5-.7 1.2-1 2.1-1H43c1.2 0 2.1.7 2.5 1.7.4 1.2.1 2.3-.9 3.1-.5.4-1.1.5-1.8.5h-2.5c-.2 0-.3 0-.4.3-.5 2.9-1.1 5.8-1.6 8.8L36.5 38c0 .3 0 .4.3.4h1.9c2.1.2 3.6 2.2 3.1 4.5-.4 1.6-1.9 2.7-3.4 2.7-.4 0-.4.1-.4.4 0 1.3-.7 1.9-2 1.9h-4c-1.3 0-2-.7-2-2 0-.3-.1-.4-.4-.4H12.9c-.2 0-.4 0-.4.2.1 1.1-.3 1.8-1.4 2.3H6.2zm12-48c.6.2 1.2.4 1.8.7 2 1.1 2.8 3.9 1.9 5.9-1.1 2.3-3.5 3.3-5.9 2.5-2.3-.8-3.6-3.4-2.9-5.7.6-1.8 1.9-2.9 3.7-3.3.1 0 .1 0 .2-.1h1.2z"/></symbol><symbol viewBox="0 0 60.5 59.2" overflow="scroll" id="s3-svg-4" xmlns="http://www.w3.org/2000/svg"><path d="M55.7 52.3v-4c0-.5-.1-.9-.5-1.3-1.6-1.6-3.3-3.2-4.9-4.9-.5-.5-.8-.5-1.3 0l-16 16c-.6.6-1.3 1.1-2.3 1-.9-.1-1.6-.6-2-1.5-.4-.8-.2-1.6.3-2.3l.9-.9c4.1-4.1 8.2-8.2 12.3-12.2.5-.5.5-.8 0-1.3-3.1-3-6.1-6.1-9.2-9.2-.5-.5-.7-.5-1.2 0-1.8 1.9-3.7 3.8-5.6 5.6-1.3 1.3-2.5 1.3-3.8 0-2.2-2.2-4.4-4.4-6.7-6.6-.7-.8-1-1.7-.7-2.8.1-.4 0-.6-.3-.9-.9-.8-1.7-1.7-2.5-2.5-.2-.2-.4-.4-.8-.3-1.2.5-2.4.4-3.6 0-2.5-.7-4.6-2-6.4-3.8-1.9-1.9-1.9-5.5-.1-7.4 1.8-1.9 5.4-2 7.3-.1 2.1 2 3.6 4.4 4.2 7.3.2.9.2 1.8-.1 2.6-.2.4-.1.7.2 1l1.8 1.8c.6.7 1.2 1.3 2.3.8.8-.3 1.5.2 2.1.8 1.5 1.5 3.1 3 4.5 4.6.6.6.9.6 1.5 0L48.5 8.4c.5-.5 1-1 1.8-1 1-.1 1.9.4 2.4 1.3s.4 1.9-.3 2.7c-.4.5-.9 1-1.4 1.4-3.7 3.7-7.3 7.4-11 11-.5.5-.6.8 0 1.3l19.5 19.5c.8.8 1.2 1.7 1.2 2.9-.1 3 0 6.1 0 9.1 0 1.6-.9 2.7-2.4 2.7-1.4 0-2.4-1.1-2.4-2.7v-2.1c-.2-.8-.2-1.5-.2-2.2zM5.3 13.2c-1.5 0-2.7.5-3.4 2-.6 1.5-.6 3 .6 4.3 1.7 1.8 3.7 3 6.1 3.5 2.1.4 3.1-.6 2.7-2.7-.4-2.3-1.6-4.1-3.1-5.8-.8-.9-1.8-1.3-2.9-1.3z"/><path d="M29.1 24c-2.6 0-4.7-2.2-4.7-4.8 0-2.6 2.1-4.7 4.7-4.8 2.6 0 4.8 2.1 4.8 4.7 0 2.7-2.2 4.9-4.8 4.9zM18.4 3.6c-.4.2-.6.6-.6 1 0 .7-.4.7-.9.6-.3-.1-.6-.2-.9-.4-.4-.3-1-.6-.9-1.1.1-.5.8-.4 1.2-.4 1.2-.2 1.7-.6 1.7-1.8V.9c.1-.6.3-.8.9-.4.6.4.9 1 1 1.7.2.5.1.8-.5.8-.4.1-.8.2-1 .6z"/><path d="M14.8 2.6C14.8 1.2 16 0 17.3 0c.4 0 .7 0 .5.6-.1.3-.1.6-.1.9-.1.9-.5 1.4-1.4 1.5-.3 0-.6 0-.9.1-.6.2-.6-.1-.6-.5zm3.6 1c.5-.1.9-.4 1.3-.2.2.1.1.3 0 .4-.3.6-.7 1-1.3 1.2-.3.1-.3-.2-.3-.4.1-.4.2-.7.3-1z"/></symbol><symbol viewBox="0 0 58.4 48" overflow="scroll" id="s3-svg-5" xmlns="http://www.w3.org/2000/svg"><path d="M31.3 16.6c-1.3 2.2-2.4 4.2-3.6 6.3-.8 1.3-1.6 1.5-2.9.7-.9-.5-1.8-1-2.8-1.6.1 1.3.2 2.5.3 3.7.3 3.6.7 7.1 1 10.7 0 .4-.1.5-.5.5h-7.6c-.5 0-1-.3-.7-1.1l4-11.4c.4-1 .1-1.3-.3-1.6-.5-.3-.3-.9.2-.9h3.2c0-.3-.2-.3-.3-.3-1-.6-2.1-1.2-3.1-1.9-.9-.6-1.2-1.5-.7-2.4.5-.9 1.5-1.1 2.5-.5l4.8 3c.3.2.5.2.7-.2 1.5-2.6 2.9-5.1 4.4-7.7.4-.7.9-1.1 1.7-1.2 2.7-.3 5.3-.7 8-1 .7-.1 1.2.2 1.7.5 2.8 2.2 5.6 4.3 8.4 6.5.3.2.5.3.9.1.6-.2 1.1 0 1.5.4 1 .9 1.5 2.1 1.7 3.4 0 .2 0 .3-.3.4-.2 0-.3 0-.4-.3-.2-.9-.4-1.7-1-2.5-.3-.4-.6-.7-1-.8-.1 0-.2-.1-.4 0-.1.1 0 .2 0 .3.4 1.1.1 2-1 2.4-.5.2-.3.6-.3.9 0 .3.1.5-.3.6-.4 0-.4-.3-.3-.5.1-.6-.2-1-.7-1.3-2.2-1.7-4.4-3.4-6.7-5.1-.2-.1-.3-.2-.6-.4.1 1 .1 1.8.2 2.7.3 3.8.5 7.6.8 11.5 0 .3.1.6.2.8.5 1.1 1.1 2.3 1.6 3.4.2.4.4.6.8.8 2.5 1.1 5 2.3 7.4 3.4 1.2.6 1.8 1.8 1.5 3-.4 1.5-2 2.4-3.4 1.7-3.1-1.4-6.1-2.8-9.1-4.2-.6-.3-1-.8-1.2-1.4-.9-1.9-1.8-3.8-2.6-5.7-.3-.7-.9-.4-1.3-.5-.5-.1-.4.4-.5.6-1.3 5.2-2.6 10.3-3.9 15.5-.3 1.2-1.3 2-2.5 2s-2.1-.7-2.5-1.8c-.2-.5-.1-1 0-1.5 1.6-6.2 3.1-12.5 4.7-18.7 0-.2.1-.4.1-.6v-8.4c.3 0 .3 0 .2-.3z"/><path d="M15 22.2c-.1.3-.3.7-.5 1-.1.2-.1.4.2.5h.1c1.1.6 1.2.6 1.7-.5.2-.4.3-.4.7-.2 1 .5 1 .5.6 1.5L13 37.4c-.2.5-.3.6-.8.3-3.9-2.1-7.8-4.1-11.7-6.1-.5-.2-.5-.4-.2-.8 2.7-3.9 5.4-7.7 8-11.6.3-.4.5-.6.9-.2 0 0 .1.1.2.1.8.4.8.4.3 1.2-.3.5-.3.8.3 1 .2 0 .3.1.4.2.3.2.5.1.6-.2.6-1.1.6-1 1.7-.5.7.3 1.3.7 2 1 .1.1.3.1.3.4zm32.5 4.6v-5.3c0-.8.6-.5.9-.6.5-.1.3.3.4.5.1.2-.1.5.2.6.3 0 .7 0 1.1-.2.2-.1 0-.4 0-.6 0-.4 0-.6.5-.7.6 0 1.2-.2 1.8-.3.4-.1.6 0 .6.4.1.7.6.9 1.2.6.3-.2.1-.5.1-.7 0-.3-.3-.6.3-.6.4 0 .8-.3 1 .4.9 3.4 1.9 6.9 2.8 10.3.1.5 0 .5-.4.6-3.2.4-6.4.9-9.6 1.4-.6.1-.7-.1-.7-.7v-5.1h-.2zM30.1 4.6c0-2.5 2-4.6 4.6-4.6 2.5 0 4.6 2 4.6 4.6 0 2.5-2.1 4.6-4.6 4.6-2.5 0-4.6-2.1-4.6-4.6z"/><path d="M16.8 19.5c-.1 1.5-.4 2.7-1 3.9-.1.3-.3.3-.5.2-.2-.1-.5-.2-.3-.5.5-.9.8-1.9.9-3 .1-.6 0-1.1-.1-1.6-.3-.8-.8-1.1-1.7-.9-1 .3-1.6.9-2.3 1.7-.4.5-.8 1-1.1 1.6-.2.4-.4.1-.6 0-.3-.1-.3-.2-.1-.5.8-1.3 1.6-2.5 2.9-3.3.5-.3 1.1-.5 1.7-.5 1 0 1.7.7 2 1.8.2.5.2.9.2 1.1z"/></symbol><symbol viewBox="0 0 51.1 48" overflow="scroll" id="s3-svg-6" xmlns="http://www.w3.org/2000/svg"><path d="M25.6 24.5H6.4c-.5 0-.6-.1-.6-.6.5-9 7.2-16.8 16.1-18.6.8-.2 1.6-.2 2.5-.3.2 0 .4 0 .4-.3 0-.2.2-.6-.3-.7-.5-.1-1-.3-1.4-.6-1-.8-1-1.9.1-2.6.9-.7 2-.8 3.1-.7.7.1 1.4.3 1.9.7.9.7.9 1.8 0 2.5-.4.3-.9.5-1.3.6-.5.1-.4.4-.4.7-.2.4.1.4.4.4 4.3.3 8 1.9 11.3 4.6 4.4 3.8 6.8 8.6 7.2 14.4 0 .5-.2.5-.5.5H25.6zM21.3 7.3H21c-1.6.3-3.1.9-4.5 1.8-3.6 2.4-6 5.7-7.6 9.7-.3.9-.6 1.8-.7 2.7-.1.4 0 .6.5.6h1.6c.3 0 .4-.1.4-.3 0-.4.1-.7.2-1.1.7-3.1 2.1-5.8 4-8.3 1.7-2.3 3.6-4.2 6.4-5.1zm.4 1.6c-1.1.1-2.1.6-3 1.3-3.6 2.9-5.6 6.8-6.4 11.3-.1.5 0 .7.5.6h.8c.3 0 .3-.1.4-.4 0-.8.1-1.5.4-2.2 1.3-4.3 3.7-8 7.3-10.6zm2.9-5.1c-.4-.5-.9-.9-.7-1.6.2-.6.8-.8 1.4-1.1-.6-.1-.7-.1-1.3.2-.7.3-.9.7-.8 1.3.1.7.7 1.2 1.4 1.2zm3 33.7c.9.1 1.8.1 2.6 0 .3 0 .5-.1.7-.2 3.2-1.4 6.4-2.6 9.6-3.9.4-.1.7-.2 1.1-.2.4 0 .7.1.8.6.1.4.1.8-.3 1.1-.3.3-.6.5-1 .7-3.3 2.3-6.7 4.6-10.1 6.8-.2.1-.4.2-.6.2l-11.9.3c-1.5 0-2.8.4-4.2.8-.3.1-.4 0-.5-.3l-1.5-7.8c-.1-.3 0-.4.3-.5 1.9-.8 3.8-1.6 5.7-2.3.9-.3 1.8-.4 2.7-.4h7.7c.2 0 .5 0 .7.2.5.2.7.6.7 1.1 0 .5-.4.8-.9.9-1.2.3-2.3.6-3.5.8l-2.4.6c-.4.1-.6.3-.6.7 0 .4.3.6.7.7.7.1 1.3.1 2 .1.9.1 1.5 0 2.2 0zM0 26.2h51.1c0 .3-.3.5-.5.7-.9.6-1.8.9-2.9.9h-2c-.3 0-.4.1-.6.3-.7.9-1.4 1.7-2.2 2.4-.5.4-1 .6-1.7.6H9.6C8 31.1 6.9 30.2 6 29c-.3-.4 0-.3.3-.3h17c.3 0 .5 0 .5-.4 0-.5-.2-.4-.5-.4H3.6c-1.1 0-2.1-.3-3-.8-.2-.3-.5-.5-.6-.9zM4.1 48V35.4c0-.4.1-.5.5-.6 1.7-.2 3.3-.5 5-.7.4-.1.3.2.4.4.4 1.9.8 3.7 1.2 5.6l1.2 5.4c.1.2.1.4-.2.4-2.6.7-5.3 1.4-7.9 2.1h-.2zm4.6-2.8c.7 0 1.3-.6 1.3-1.3 0-.7-.5-1.2-1.3-1.2-.7 0-1.3.5-1.2 1.3-.1.7.5 1.2 1.2 1.2z"/></symbol><symbol viewBox="0 0 47.7 48" overflow="scroll" id="s3-svg-7" xmlns="http://www.w3.org/2000/svg"><path d="M41.4 29.8c.4.6 1 .9 1.4 1.3 1.4 1.5 2.3 3.2 2.3 5.3v5.8c0 .6-.2.8-.8.8h-1.7c-.5 0-.8.3-.8.8v1.6c-.1 1.5-1.4 2.7-2.9 2.6-1.5 0-2.8-1.2-2.8-2.7v-1.6c0-.6-.2-.8-.8-.8H15.1c-1.1 0-1 0-1.1 1.1-.1.6.1 1.2-.1 1.8-.4 1.5-1.8 2.4-3.4 2.2-1.5-.2-2.6-1.6-2.5-3.1.1-2 .1-2-1.8-2h-.7c-.5 0-.6-.2-.6-.6 0-2.3-.2-4.6.1-6.9.2-1.8 1.2-3.3 2.5-4.5.2-.2.5-.3.5-.6-.1-.3-.4-.3-.7-.3-1.8-.5-3.3-2.5-3-4 .1-.5-.2-.9-.6-1.2C1 23.1-.2 20.6.2 17.5c.4-3.1 2.4-5.1 5.3-6 1.7-.6 3.4-.5 5.1.1.4.1.7.1.9-.2 2-2.4 6.4-2.1 8.2.4.4.6.9.7 1.6.6 2.8-.2 5.1 1.8 5 4.4 0 .5.1.8.7.9.6 0 1.1.2 1.4-.6.4-1.4 1.2-2.6 2.4-3.5 3.3-2.7 8.2-2 10.8 1.4.4.5.7.7 1.4.5 1.3-.5 2.7 0 3.5 1.1.7 1 .7 2.3-.2 3.5-.3.4-.3.6 0 .9 1.6 1.6 2 4 1.1 5.9-.9 1.9-3.1 3.1-5.3 2.9-.3-.1-.5-.2-.7 0zM25 28.6h10.7c.9 0 .9-.1.6-.9-.6-1.8-1.3-3.5-1.9-5.3-.4-1.1-.8-1.5-2-1.5H17.5c-.9 0-1.6.4-1.9 1.4-.5 1.7-1.2 3.4-1.8 5.1-.4 1.1-.4 1.2.8 1.2H25zM1.6 18.7c.1 1.8.8 3.4 2.6 4.5.4.3.6.2.9-.2 1.4-1.7 4.2-2.2 6.1-.9.4.3.6.2.8-.2.3-.6.5-1.3.8-1.9.2-.4 0-.6-.3-.7-2-1.3-2.9-3.1-2.4-5.5.1-.5 0-.8-.5-.9-3.9-1.4-8 1.5-8 5.8zM34.8 14c.7 0 1.2.2 1.2.8 0 .5-.4.8-.9.8-1.1-.1-1.8.6-2.5 1.3-.1.1-.3.3-.2.5.1.2.3.2.5.2.6 0 1.2.2 1.7.4 1.3.5 2.4 1.3 2.9 2.8.3.8.4.8 1 .2.5-.5 1-.9 1.7-1.1.8-.3.9-.8.8-1.5-.3-2.5-2.2-4.5-5-4.9-2.9-.4-5.2 1.5-6 3.3-.1.3-.4.6 0 .8.4.2.5-.2.6-.5l.3-.6c1-1.6 2.4-2.3 3.9-2.5zm-19.4-2.8c-2 0-3.5 1.3-3.9 3-.3 1.5.6 3.1 2.1 3.9.4.2 3.9-.3 4.2-.6v-.1c1.1-1.1 1.5-2.9.8-4.2-.6-1.3-1.8-2-3.2-2zm27 9.7c-1.4 0-2.7.8-3.4 2-.2.4-.4.9-.2 1.4.1.2.1.5.3.5.3 0 .2-.3.3-.5.5-1.6 1.9-2.7 3.3-2.6.4 0 .8.1.8.6 0 .4-.3.6-.7.6-1.3.2-2 .8-2.2 2.1-.1.5-.3.7-.7.7-.2 0-.6-.1-.5.3.2.6.3 1.1.9 1.5 1.2.8 3.1.8 4.1 0 1.4-1.1 1.9-2.5 1.4-4.1-.3-1.4-1.9-2.5-3.4-2.5zm-33.7 2c-1.4-.2-3 1.2-3.1 3 0 1.2 1.5 2.6 3 2.6.6 0 1-.2 1.2-.8.3-.9.7-1.7 1-2.6.4-1.1.2-1.5-.9-2.1-.4-.1-.8-.1-1.2-.1zM39 33.4c-1.3 0-2.4 1-2.4 2.4 0 1 1.2 2.2 2.3 2.2 1.3 0 2.4-1.1 2.4-2.4 0-1.2-1-2.2-2.3-2.2zm-28 .1c-1.3 0-2.4 1-2.4 2.2 0 1.2 1.1 2.2 2.3 2.3 1.3 0 2.4-1.1 2.4-2.3 0-1.2-1-2.2-2.3-2.2zm11.2-15.9h1.5c.4 0 .7-.2.8-.7.2-1.6-1.6-3.4-3.2-3.1-.2 0-.3.1-.5.1-.1.1-.2.2-.2.3 0 .2.2.3.3.3.2 0 .4 0 .6-.1.3 0 .6 0 .7.3.1.4-.2.6-.5.6-1 .1-1.3.7-1.6 1.5-.2.5 0 .6.4.7.6.1 1.2.1 1.7.1zm21.1-1.2c-.7 0-.9.3-.7 1.2 0 .2.1.5.1.7 0 .6 0 1 .7 1.1.7.1 1.3.3 1.8-.5.3-.5.5-1 .1-1.6-.4-.6-1-.9-2-.9z"/><path d="M30 1.8c.9-.1 1.7.2 2.5.8.4.3.8.3 1.3.1 1.2-.6 2.7-.3 3.7.6.9.9 1.1 2.2.6 3.3-.6 1.3-1.9 2-3.3 1.7-.5-.1-.7.1-.9.4-1.9 2.4-4.9 2.6-7.1.7-2.4-2.1-1.5-6.2 1.6-7.3.4-.2 1-.4 1.6-.3zm-.1 7.3c1.6 0 3-1.4 3-2.8 0-1.5-1.5-2.9-3.1-2.9s-3 1.4-2.9 3c0 1.4 1.5 2.7 3 2.7zm6.8-3.8c0-1-1.1-1.8-2.1-1.5-.4.2-.6.4-.4.7.2.6.3 1.2.3 1.8 0 .4.2.6.6.6.8 0 1.6-.8 1.6-1.6zm-16.4.6c-1.7-.1-3.1-1.5-3-3.1.1-1.6 1.5-2.8 3.3-2.8 1.5 0 2.9 1.4 2.9 2.9 0 1.7-1.4 3.1-3.2 3zm.2-1.3c.9 0 1.7-.8 1.6-1.7 0-.9-.8-1.6-1.7-1.6-.9 0-1.7.9-1.7 1.7 0 .8.9 1.6 1.8 1.6zm-18 13.5c.1-2.4 2.6-4.8 5-4.7.5 0 .9.2.9.7.1.5-.3.8-.8.8-2.3.4-3.2 1.2-3.6 3.5-.1.5-.3.7-.8.7s-.7-.4-.7-1zm9.7-3c0-1.9 2-3.4 3.8-3.1.2 0 .4.1.5.4 0 .2 0 .4-.2.6-.2.1-.3.3-.6.3-1.2.1-1.9.8-2.1 2-.1.5-.2.9-.8.8-.6-.1-.6-.6-.6-1zM9 23.4c.2 0 .6-.1.7.4.1.4-.3.5-.6.6-.9.1-1.5.6-1.7 1.6-.1.3-.1.8-.6.7-.5-.1-.4-.5-.4-.9 0-1.3 1.2-2.4 2.6-2.4z"/></symbol><symbol viewBox="0 0 40 48" overflow="scroll" id="s3-svg-8" xmlns="http://www.w3.org/2000/svg"><path d="M1.9 48c-.4-.2-.8-.3-1.2-.6-.7-.6-.9-1.3-.7-2.2.4-1.1.8-2.2 1.2-3.2.9-2.1 1.9-4.1 2.6-6.2l.6-1.8c0-.1.1-.3 0-.4-.4-.7-.4-1.6-.8-2.3-.1-.3-.3-.5-.5-.7-.3-.5-.4-1-.5-1.5 0-.6-.1-1.3-.1-1.9 0-.2.1-.3.3-.3 1.3.1 2.5.1 3.8.2.9 0 1.7.1 2.6.1.3 0 .4.1.4.4-.1.7.2 1.2.8 1.6 2.3 1.9 4 4.1 5.4 6.7 1.5 2.7 2.4 5.6 2.8 8.7 0 .2.1.5.1.7.2 1.8-1.2 2.5-2.5 2.2-1.1-.2-1.8-1-1.9-2.1-.3-3.1-1.3-6.1-3-8.8-.5-.8-1-1.5-1.6-2.1-.1-.1-.1-.1-.2-.1s-.1.1-.1.2c-.3 1.6-.9 3.1-1.6 4.5-.8 1.7-1.8 3.4-2.5 5.2-.2.6-.5 1.1-.6 1.7-.2 1-.7 1.7-1.7 2H1.9zM3.7 0c.1.1.3.1.5.1 1.5.1 2.9.2 4.4.2.3 0 .3.1.3.3 0 .6-.1 1.1-.1 1.7 0 .2-.1.3-.3.3-1.8-.1-3.7-.2-5.5-.3-.3 0-.3-.1-.3-.3 0-.7.1-1.3.1-2h.9z"/><path d="M20.1 16.6c.2-.9.4-1.7.7-2.5 1.2-2.7 3.2-4.5 6.1-5.3.1 0 .1 0 .2-.1.3-.1.7-.1.9-.2.2-.2 0-.5 0-.8.1-.7.6-1.2 1.3-1.3.3 0 .4-.1.3-.4v-.7c0-.3.1-.5.4-.5.3 0 .4.2.4.5V6c0 .3.1.4.3.4.9.1 1.5.9 1.3 1.8-.1.3 0 .4.3.4 1.2.2 2.4.7 3.4 1.4 2.3 1.6 3.8 3.8 4.2 6.6.1.5.1 1.1.1 1.6v22c0 .5 0 .5-.5.5H20.4c-.4 0-.4-.1-.4-.4V18.8c-.8.9-1.9.8-2.9.9-.3 0-.4-.1-.4-.4.1-1.2.1-2.4.2-3.6 0-.3-.1-.4-.4-.4-1 0-1 0-1 .9-.1 1-.1 2.1-.1 3.1 0 .3 0 .4.3.4h.6c.4 0 .5.2.4.6 0 .1-.1.1-.2.1h-.6c-.4 0-.6 0-.5-.5 0-.2-.1-.2-.3-.2-.6-.1-1.1-.1-1.7-.2-1.2-.2-2.4-.5-3.5-.9-.4-.1-.4-.1-.4.3V26c0 .4-.1.4-.4.4C7 26.2 5 26.1 3 26c-.3 0-.4-.1-.4-.4V20c0-2.5-.1-5-.3-7.5-.2-2 1.5-3.4 3.1-3.5 2-.2 3.4 1.1 3.7 2.9.1.4.1.7.1 1.1 0 .2.1.3.2.4 1.7.8 3.4 1.4 5.3 1.7.2 0 .3 0 .5.1.2 0 .4 0 .4-.3 0-.2.1-.2.3-.2h.7c.2 0 .4 0 .3.3 0 .2.1.2.2.2h.4c1-.1 1.8.3 2.4 1.2.1 0 .1 0 .2.2zm1.6 11.3v10.6c0 .4.1.5.5.5h15.6c.5 0 .5 0 .5-.5V18.4c0-1.2-.1-2.3-.6-3.4-.7-1.7-2-3.1-3.6-4-1.6-.9-3.3-1-5-.9-2.2.1-4.1 1.1-5.5 2.8-1.3 1.5-1.9 3.2-1.9 5.2v9.8zM5.5 2.9c.9.1 1.9.2 2.8.2.4 0 .5.2.6.4.8 2-.5 4.2-2.6 4.6-1.5.4-2.7-.1-3.6-1.3-.7-1.2-.8-2.4-.2-3.7.1-.2.3-.3.5-.3.9.1 1.7.1 2.5.1 0 .1 0 0 0 0zM34.7 47c-1.3 0-2.3-1.1-2.2-2.3 0-1.3 1.1-2.3 2.3-2.2 1.3 0 2.3 1.1 2.2 2.3 0 1.2-1 2.2-2.3 2.2zm-12.2-2.3c0-1.3 1-2.3 2.3-2.3 1.3 0 2.3 1.1 2.3 2.3 0 1.3-1 2.3-2.3 2.3-1.3 0-2.3-1-2.3-2.3z"/><path d="M22.9 25.8v-6c0-.3.1-.4.4-.4h4.3c.3 0 .4.1.4.3v12.2c0 .3-.1.4-.4.4h-4.3c-.3 0-.4-.1-.4-.4v-6.1zm9.9 6.4h-3.7c-.3 0-.4-.1-.4-.4v-5.7c0-.3.1-.4.4-.4h2.2c.2 0 .3-.1.3-.3v-.9c0-.2.1-.3.3-.3h2.2c.3 0 .3.1.3.3v.9c0 .2.1.3.3.3h1.9c.3 0 .4.1.4.4v5.7c0 .3-.1.4-.4.4h-3.8zm.1-6.4h.2c.7 0 .7 0 .7-.7 0-.2-.1-.3-.3-.3h-1.3c-.2 0-.3.1-.3.3 0 .7 0 .7.7.7h.3zm-2.8 8.1h6.4c.3 0 .4.1.4.4v2.8c0 .3 0 .4-.4.4H23.6c-.3 0-.3-.1-.3-.3v-2.9c0-.3.1-.4.4-.4h6.4z"/></symbol><symbol viewBox="0 0 34.9 48" overflow="scroll" id="s3-svg-9" xmlns="http://www.w3.org/2000/svg"><path d="M24.9 20.7c-.1.2-.1.3-.1.5v6.7c0 .3.1.5.4.7 2.9 1.6 5.9 3.3 8.8 4.9.7.4 1 1 .9 1.7-.2.9-1.2 1.4-2.1 1-.5-.2-.9-.5-1.4-.8-.5-.3-.5-.3-.5.3v11.7c0 .8.1.7-.7.7h-6.5c-.3 0-.5-.1-.5-.4v-8.1c0-.1-.1-.3.1-.3.1-.1.2.1.3.2.2.1.3.3.6.4.4.1.7 0 .9-.3.2-.3.2-.6 0-.9-2-2.8-4.7-4.4-8.2-4.2-2.9.1-5.2 1.5-6.9 3.9-.5.6-.5 1.1-.1 1.4.4.4.9.2 1.4-.4 0 0 .1 0 .1-.1.2.1.1.3.1.4v8c0 .4-.1.5-.5.5H4.7c-.4 0-.5-.1-.5-.5V35.8c0-.5 0-.5-.5-.3s-.9.5-1.4.7c-.8.4-1.7.2-2.1-.5-.4-.8-.2-1.6.7-2 2.9-1.6 5.8-3.3 8.8-4.9.3-.2.5-.4.4-.8v-7l-.7.7c-.6.7-1.3.8-1.9.3-.5-.6-.5-1.3 0-2 2.6-3 5.2-6 7.7-9 .5-.5 1.1-1 1.3-1.6.2-.6.1-1.4.1-2.1V5.6c0-.4-.1-.5-.5-.4H14c-.3 0-.5-.1-.4-.4.1-.5-.2-1 .1-1.3.3-.4.9-.2 1.3-.2h1.2c.3 0 .4-.1.4-.4V.4c0-.3.1-.4.4-.4 1.3 0 1.3 0 1.3 1.3V3c0 .3.1.4.4.4H21c.3 0 .4.1.4.3v1.1c0 .3-.1.4-.4.4h-2.2c-.3 0-.4.1-.4.4v3.5c0 .3.2.5.3.7L27.4 20c.7.8.5 1.8-.5 2.1-.5.2-.9 0-1.2-.4-.2-.3-.5-.6-.8-1zm-3.9.7c0-2-1.6-3.5-3.5-3.6-2 0-3.6 1.6-3.6 3.6 0 1.9 1.6 3.5 3.5 3.5 2 0 3.6-1.6 3.6-3.5z"/><path d="M16.8 42v5.5c0 .4-.1.5-.4.5h-3.1c-.3 0-.4-.1-.4-.4V38c0-.2 0-.3.1-.4 1-.7 2.1-1.4 3.4-1.6.4 0 .5 0 .5.4-.2 1.9-.1 3.8-.1 5.6zm.9 0v-5.5c0-.4.1-.5.4-.4 1.3.2 2.3.8 3.3 1.5.1.1.1.2.1.4v9.7c0 .3-.1.4-.4.4H18c-.3 0-.4-.1-.4-.4.2-2 .1-3.9.1-5.7z"/></symbol><symbol viewBox="0 0 32.1 32.1" overflow="scroll" id="s8-svg-1" xmlns="http://www.w3.org/2000/svg"><path d="M16 32.1c-8.8 0-16-7.2-16-16S7.2 0 16 0s16 7.2 16 16-7.1 16.1-16 16.1zM16 2C8.3 2 2 8.3 2 16s6.3 14 14 14 14-6.3 14-14S23.8 2 16 2z"/><path d="M20.4 24.6c-1.5-.1-2.9-.7-4.2-1.6-2.9-2-5.4-4.4-7.3-7.4-.7-1.1-1.2-2.2-1.4-3.5-.4-2.2.9-4.1 3-4.7.8-.2 1.4 0 1.7.8.4.9.7 1.8 1 2.7.3.8.1 1.3-.7 1.7-1.1.5-1.3 1.1-.7 2.1 1.2 2.3 2.9 4.1 5.2 5.2 1.1.6 1.6.4 2.2-.7.4-.9 1-1 1.8-.7l2.4.9c1.1.5 1.3.9.9 2.1-.4 2-1.9 3.1-3.9 3.1z"/></symbol><symbol viewBox="0 0 31.7 24" overflow="scroll" id="s8-svg-2" xmlns="http://www.w3.org/2000/svg"><path d="M4.1 19.5c0-.3.1-.4.3-.6C6 17.4 7.6 16 9.1 14.6c.5-.5 1-1 1.6-1.4.3-.2.2-.3 0-.5-2.1-2.3-4.3-4.6-6.4-7-.2-.3-.3-.5-.2-.8.1-.2.3-.4.6-.4s.4.1.6.3c1.4 1.5 2.7 3 4.1 4.5 1.3 1.4 2.5 2.8 3.8 4.1 1.5 1.7 3.8 1.7 5.3 0 1.9-2.1 3.9-4.3 5.8-6.4.7-.7 1.3-1.5 2-2.2.2-.2.5-.4.8-.3.5.2.6.7.2 1.1-.6.7-1.2 1.3-1.8 2-1.6 1.7-3.1 3.4-4.7 5.1-.2.2-.1.3 0 .4l6.3 5.7.2.2c.3.3.3.6 0 .9-.2.3-.6.3-.9 0-.4-.3-.8-.7-1.2-1.1-1.8-1.6-3.5-3.2-5.3-4.8-.2-.2-.3-.1-.4 0-.6.8-1.4 1.4-2.4 1.7-1.9.5-3.5 0-4.9-1.4-.5-.5-.4-.5-.9 0-2 1.9-4.1 3.7-6.1 5.6-.2.2-.4.3-.7.1-.3-.1-.4-.3-.4-.5z"/><path d="M28.1 24H3.6c-2 0-3.6-1.6-3.6-3.6V3.6C0 1.6 1.6 0 3.6 0h24.5c2 0 3.6 1.6 3.6 3.6v16.8c0 2-1.6 3.6-3.6 3.6zM3.6 2C2.7 2 2 2.7 2 3.6v16.8c0 .9.7 1.6 1.6 1.6h24.5c.9 0 1.6-.7 1.6-1.6V3.6c0-.9-.7-1.6-1.6-1.6H3.6z"/></symbol><symbol viewBox="0 0 35.3 35.3" overflow="scroll" id="s8-svg-3" xmlns="http://www.w3.org/2000/svg"><path d="M35.3 17.6c0 9.7-7.9 17.6-17.6 17.6S0 27.4 0 17.6C0 7.9 7.9 0 17.6 0s17.7 7.9 17.7 17.6zm0 0"/><path d="M22.1 18.3H19v11.5h-4.8V18.3h-2.3v-4.1h2.3v-2.6c0-1.9.9-4.8 4.8-4.8h3.5v3.9h-2.6c-.4 0-1 .2-1 1.1v2.4h3.6l-.4 4.1zm0 0"/></symbol><symbol viewBox="0 0 19.2 34.1" overflow="scroll" id="swiper-arrow" xmlns="http://www.w3.org/2000/svg"><path d="M17.1 34.1L0 17.1 17.1 0l2.1 2.1-15 15 15 14.9z"/></symbol></svg>